<svg xmlns="http://www.w3.org/2000/svg" width="90" height="35" viewBox="0 0 90 35">
    <defs>
        <linearGradient id="a" x1="50.261%" x2="50.261%" y1="99.667%" y2="-.28%">
            <stop offset="0%" stop-color="#FFF" stop-opacity="0"/>
            <stop offset="100%" stop-color="#CBCCCE"/>
        </linearGradient>
        <linearGradient id="b" x1="-.355%" x2="99.833%" y1="49.994%" y2="49.994%">
            <stop offset="0%" stop-color="#FFF" stop-opacity="0"/>
            <stop offset="100%" stop-color="#CBCCCE"/>
        </linearGradient>
        <linearGradient id="c" x1="-.352%" x2="97.917%" y1="52.25%" y2="52.25%">
            <stop offset="0%" stop-color="#FFF" stop-opacity="0"/>
            <stop offset="100%" stop-color="#CBCCCE"/>
        </linearGradient>
        <linearGradient id="d" x1=".569%" x2="101.944%" y1="50.305%" y2="50.305%">
            <stop offset="0%" stop-color="#FFF" stop-opacity="0"/>
            <stop offset="100%" stop-color="#CBCCCE"/>
        </linearGradient>
        <linearGradient id="e" x1="50.744%" x2="50.744%" y1="99.023%" y2="-.457%">
            <stop offset="0%" stop-color="#FFF" stop-opacity="0"/>
            <stop offset="100%" stop-color="#CBCCCE"/>
        </linearGradient>
    </defs>
    <g fill="none" fill-rule="evenodd">
        <path fill="#000" fill-rule="nonzero" stroke="#FFF" stroke-width="1.4" d="M29.478 16.794a11.132 11.132 0 0 0-1.231-2.734c4.617-10.733-11.902-15.594-11.39-5.164-1.128.1-2.36.303-3.59.708-1.745.608-3.284 1.418-4.618 2.43-5.54-7.897-11.081 4.658-5.13 7.392-.513 1.924-.616 3.95-.103 5.873.821 3.24 3.181 5.569 6.054 6.885 2.873 2.734 7.696 2.734 11.39-.101.205-.101.41-.304.512-.405 6.157-2.835 9.645-9.214 8.106-14.884z"/>
        <path fill="#000" fill-rule="nonzero" d="M29.478 16.794a11.132 11.132 0 0 0-1.231-2.734c4.617-10.733-11.902-15.594-11.39-5.164-1.128.1-2.36.303-3.59.708-1.745.608-3.284 1.418-4.618 2.43-5.54-7.897-11.081 4.658-5.13 7.392-.513 1.924-.616 3.95-.103 5.873.821 3.24 3.181 5.569 6.054 6.885 2.873 2.734 7.696 2.734 11.39-.101.205-.101.41-.304.512-.405 6.157-2.835 9.645-9.214 8.106-14.884z"/>
        <path fill="#FFF" d="M28.715 17.612c-1.646-5.941-8.334-9.014-15.021-6.76-6.688 2.253-10.906 8.91-9.26 14.851.72 2.868 2.675 5.02 5.247 6.249 2.675 2.868 7.408 3.072 11.009.307.206-.205.514-.41.72-.615 5.556-2.765 8.745-8.604 7.305-14.032zm-17.182 8.091c-.206.41-1.132 1.23-1.646 1.23-.412 0-1.646-.717-1.646-1.127 0-.307.205-.41.411-.41l2.367-.41c.308 0 .617.308.514.717zm-6.893-3.79c-.309-1.638.514-3.79 2.366-4.097 2.366-.41 3.704 1.434 3.601 3.073-.103.922-1.852 1.025-3.498 3.483-.72 1.024-2.263-1.23-2.47-2.458zm12.552 4.815c-.103 0-.206 0-.206.102-.926 1.741-2.984 4.2-5.247 4.097-1.646-.102-3.19-1.024-3.91-1.843h-.206c-.205.204-.514.307-.617.204.103 0 .412-.204.515-.512.102-.307.102-.717 0-.922.102.205.205.41.205.717 0 0 0 .205.103.205.617.512 1.44 1.025 3.292.82 1.955-.308 4.219-1.844 5.556-2.868.103 0 .103-.205 0-.205-.308-.307-.617-.717-.514-.922 0 .205.411.717 1.029.922.617.205 1.337-.103 1.749-.103-.412.103-1.132.513-1.75.308zm1.131-4.097c-3.086-2.254-5.247-1.64-5.761-2.664-.823-1.946 0-4.609 2.984-5.223 2.263-.41 4.218 1.74 4.63 3.892.308 1.639-.618 4.916-1.853 3.995z"/>
        <path fill="url(#a)" d="M11.476 11.271c.408-.206.715-.31 1.124-.413 6.64-2.274 13.384.827 14.916 6.822 1.635 5.994-2.554 12.61-9.195 14.883-.102 0-.306.104-.409.104 6.028-2.584 2.555-8.269 6.641-14.16 2.248-3.205-6.538-9.303-13.077-7.236z" transform="translate(.409)"/>
        <path fill="#4D4D4F" d="M18.13 6.059c2.342-4.655 10.998-1.375 10.082 5.608-.51-5.714-7.027-8.359-10.082-5.608zM1.745 15.556c-.207-3.94 3.095-7.979 7.017-3.434-.104 0-.207.202-.31.303-3.509-3.737-6.501-.505-6.707 3.13z"/>
        <path fill="#4D4D4F" fill-rule="nonzero" d="M14.076 20.222s-.932-.217-1.14-.325c-.103-.217-1.241-2.93 2.071-4.341-.931.868-1.76 2.604-.931 4.666zM6.23 23.257s-.189.854-.378.854-2.458-3.63.568-5.444c-1.324 1.921-1.04 3.523-.19 4.59z"/>
        <g fill="#FFF" fill-rule="nonzero">
            <path d="M42.234 25.719c0 .83-.103 1.555-.31 2.281-.206.726-.515 1.244-.928 1.763-.412.518-.928.933-1.444 1.14-.619.312-1.238.416-2.063.416-.413 0-.826 0-1.238-.104-.413-.104-.722-.208-1.032-.311v4.044h-3.095V20.637c.31-.104.62-.207.929-.207.31-.104.722-.104 1.134-.208.413-.103.826-.103 1.238-.103h1.135c.929 0 1.65.103 2.373.414.722.311 1.238.623 1.754 1.141.516.519.825 1.037 1.135 1.763.31.622.412 1.452.412 2.282zm-3.095.103c0-.933-.206-1.763-.619-2.281-.412-.622-1.031-.83-1.857-.83h-.722c-.206 0-.412 0-.619.104v5.6c.207.104.413.207.722.31.31.105.62.105.929.105 1.444 0 2.166-1.037 2.166-3.008zM48.527 20.015c.929 0 1.65.104 2.27.31.619.208 1.135.52 1.444.934.413.415.62.83.722 1.452.103.519.207 1.14.207 1.867v6.43c-.413.103-1.032.207-1.857.31-.826.104-1.754.208-2.889.208a9.207 9.207 0 0 1-1.857-.207 3.073 3.073 0 0 1-1.444-.623c-.413-.31-.722-.622-.929-1.14-.206-.415-.31-1.037-.31-1.66 0-.622.104-1.14.414-1.659.206-.415.618-.83 1.031-1.037.413-.311.929-.415 1.444-.519.516-.103 1.135-.207 1.754-.207h1.032c.31 0 .516.104.722.104v-.208c0-.518-.206-.933-.516-1.244-.31-.311-.825-.519-1.65-.519-.516 0-1.032 0-1.548.104s-.928.208-1.341.311l-.413-2.489c.207-.103.413-.103.62-.207.309-.104.515-.104.825-.207.31 0 .619-.104 1.031-.104h1.238zm.207 9.022h.825c.31 0 .516 0 .619-.104v-2.385c-.103 0-.31-.104-.516-.104h-1.547c-.207 0-.516.104-.62.208a.808.808 0 0 0-.412.415c-.103.207-.206.414-.206.622 0 .518.206.83.515 1.037.31.207.826.311 1.342.311zM55.955 20.637c.516-.104 1.238-.311 2.063-.415.826-.103 1.651-.207 2.58-.207.928 0 1.65.104 2.27.31a3.076 3.076 0 0 1 1.443 1.038c.31.415.62.933.723 1.556.103.622.206 1.244.206 2.074v6.118h-3.095v-5.704c0-1.037-.103-1.659-.413-2.074-.31-.414-.722-.622-1.444-.622h-.722c-.207 0-.516 0-.62.104v8.4h-3.094V20.637h.103zM77.62 30.8c-.31.104-.62.207-.929.207-.31.104-.722.104-1.135.208-.412.104-.825.104-1.238.104h-1.135c-.928 0-1.65-.104-2.372-.415s-1.238-.623-1.754-1.141c-.516-.519-.825-1.037-1.135-1.763-.206-.726-.413-1.452-.413-2.385 0-.934.104-1.66.31-2.385.206-.726.516-1.349.928-1.763.413-.519.929-.83 1.548-1.141.619-.311 1.238-.415 2.063-.415.413 0 .825 0 1.135.104.31.104.722.207 1.032.31v-4.873l3.095-.519V30.8zm-6.912-5.081c0 .933.206 1.762.619 2.281.412.622 1.031.83 1.856.83h.723c.206 0 .412 0 .619-.104v-5.6a5.016 5.016 0 0 0-.723-.311c-.309-.104-.619-.104-.928-.104-1.444 0-2.166.933-2.166 3.008zM84.428 20.015c.929 0 1.651.104 2.27.31.619.208 1.135.52 1.444.934.413.415.62.83.722 1.452.104.519.207 1.14.207 1.867v6.43c-.413.103-1.032.207-1.857.31-.826.104-1.754.208-2.889.208a9.207 9.207 0 0 1-1.857-.207 3.073 3.073 0 0 1-1.444-.623c-.413-.31-.722-.622-.929-1.14-.206-.415-.309-1.037-.309-1.66 0-.622.103-1.14.413-1.659.206-.415.619-.83 1.031-1.037.413-.311.929-.415 1.445-.519.515-.103 1.134-.207 1.753-.207h1.032c.31 0 .516.104.722.104v-.208c0-.518-.206-.933-.516-1.244-.31-.311-.825-.519-1.65-.519-.516 0-1.032 0-1.548.104s-.928.208-1.34.311l-.414-2.489c.207-.103.413-.103.62-.207.309-.104.515-.104.825-.207.31 0 .619-.104 1.031-.104h1.238zm.207 9.022h.825c.31 0 .516 0 .619-.104v-2.385c-.103 0-.31-.104-.516-.104h-1.547c-.207 0-.516.104-.62.208a.808.808 0 0 0-.412.415c-.103.207-.206.414-.206.622 0 .518.206.83.516 1.037.412.207.825.311 1.34.311z"/>
        </g>
        <g fill="#FFF" fill-rule="nonzero">
            <path d="M38.194 3.889c.923 0 1.641.104 2.256.311.616.207 1.129.519 1.436.933.41.415.616.83.718 1.452a9.4 9.4 0 0 1 .205 1.867v6.43c-.41.103-1.025.207-1.846.31-.82.104-1.743.208-2.871.208a9.102 9.102 0 0 1-1.847-.207 3.046 3.046 0 0 1-1.435-.623c-.41-.31-.718-.622-.924-1.14-.205-.415-.307-1.037-.307-1.66 0-.622.102-1.14.41-1.659.205-.415.615-.83 1.026-1.037.41-.311.923-.415 1.436-.518.512-.104 1.128-.208 1.743-.208h1.026c.307 0 .513.104.718.104V8.14c0-.519-.205-.934-.513-1.245-.308-.31-.82-.518-1.641-.518-.513 0-1.026 0-1.539.103-.512.104-.923.208-1.333.312l-.41-2.49c.205-.103.41-.103.615-.207.308-.103.513-.103.82-.207.308 0 .616-.104 1.026-.104.513.104.82.104 1.231.104zm.205 9.022h.82c.308 0 .514 0 .616-.104v-2.385c-.102 0-.308-.103-.513-.103H37.784c-.205 0-.513.103-.616.207a.805.805 0 0 0-.41.415c-.102.207-.205.415-.205.622 0 .518.205.83.513 1.037.308.207.82.311 1.333.311zM48.758 12.807c.513 0 .923-.103 1.23-.207.206-.104.309-.311.309-.622 0-.208-.103-.415-.41-.622-.308-.208-.719-.415-1.334-.623-.513-.207-.923-.414-1.333-.518a3.684 3.684 0 0 1-1.026-.726c-.308-.311-.513-.622-.615-.933-.103-.415-.206-.83-.206-1.349 0-1.037.41-1.866 1.129-2.385.718-.622 1.743-.933 3.077-.933.615 0 1.23.104 1.846.207.615.104 1.025.208 1.436.415l-.513 2.385c-.308-.103-.718-.207-1.128-.31-.41-.105-.923-.105-1.436-.105-.923 0-1.436.312-1.436.83 0 .104 0 .208.102.311 0 .104.103.208.205.311.103.104.308.208.513.311.205.104.513.208.82.312.719.207 1.232.518 1.642.725.41.208.82.519 1.025.83.206.311.41.622.513.933.103.312.103.726.103 1.245 0 1.037-.41 1.867-1.23 2.385-.821.519-1.95.83-3.386.83-.923 0-1.743-.104-2.358-.208-.616-.207-1.026-.31-1.334-.415l.513-2.488c.513.207 1.026.414 1.641.518.513-.207 1.026-.104 1.641-.104zM58.604 12.807c.513 0 .923-.103 1.23-.207.206-.104.309-.311.309-.622 0-.208-.103-.415-.41-.622-.308-.208-.719-.415-1.334-.623-.513-.207-.923-.414-1.333-.518a3.684 3.684 0 0 1-1.026-.726c-.308-.311-.513-.622-.615-.933-.103-.415-.205-.83-.205-1.349 0-1.037.41-1.866 1.128-2.385.718-.622 1.743-.933 3.077-.933.615 0 1.23.104 1.846.207.615.104 1.025.208 1.436.415l-.513 2.385c-.308-.103-.718-.207-1.128-.31-.41-.105-.923-.105-1.436-.105-.923 0-1.436.312-1.436.83 0 .104 0 .208.102.311 0 .104.103.208.206.311.102.104.307.208.512.311.205.104.513.208.82.312.719.207 1.232.518 1.642.725.41.208.82.519 1.025.83.206.311.41.622.513.933.103.312.103.726.103 1.245 0 1.037-.41 1.867-1.23 2.385-.719.311-1.847.622-3.283.622-.923 0-1.743-.103-2.359-.207-.615-.208-1.025-.311-1.333-.415l.513-2.489c.512.208 1.025.415 1.64.519.513 0 1.026.103 1.54.103zM64.963 9.696c0-.933.103-1.763.41-2.489.308-.726.718-1.348 1.128-1.763.513-.518 1.026-.83 1.641-1.14.616-.208 1.231-.415 1.95-.415 1.538 0 2.768.518 3.589 1.452.923.933 1.333 2.281 1.333 4.148v1.141h-6.872c.103.622.41 1.14.923 1.555.513.415 1.231.519 2.052.519.513 0 1.128 0 1.64-.104.514-.104 1.026-.207 1.334-.415l.41 2.49c-.205.103-.41.206-.615.206-.308.104-.615.104-.923.208-.308.104-.718.104-1.026.104-.41 0-.718.103-1.128.103-.923 0-1.846-.103-2.564-.415-.718-.31-1.333-.725-1.744-1.14-.512-.519-.82-1.141-1.025-1.763-.41-.726-.513-1.556-.513-2.282zm7.18-1.244c0-.311-.103-.519-.103-.726-.103-.207-.205-.519-.308-.622-.205-.208-.308-.311-.615-.519a2.03 2.03 0 0 0-.923-.207c-.308 0-.616.103-.923.207-.206.104-.41.311-.616.415-.205.207-.307.415-.41.622-.103.208-.103.519-.205.726h4.102v.104zM77.27 1.4l3.077-.519v3.215h3.693V6.69h-3.693v3.837c0 .622.103 1.14.308 1.555.205.415.718.623 1.333.623.308 0 .616 0 1.026-.104.308-.104.615-.104.923-.207l.41 2.385c-.41.103-.82.31-1.23.415a7.063 7.063 0 0 1-1.641.207c-.82 0-1.539-.104-2.052-.311-.512-.208-1.025-.519-1.333-.933-.308-.415-.513-.934-.718-1.452-.102-.623-.205-1.245-.205-1.97V1.4h.103z"/>
        </g>
        <g fill="#FFF" fill-rule="nonzero">
            <path d="M82.226.415V.83h.437v.207h-.437v.83c0 .207.109.31.218.31h.219v.208h-.219c-.109 0-.218 0-.328-.104-.109-.103-.109-.207-.109-.414v-.83h-.328V.83h.219V.415h.328zM82.99 1.348V.933h.22v.208c.109-.104.218-.311.546-.311.218 0 .437.103.437.31 0-.103.11-.207.219-.207.109-.103.218-.103.328-.103.218 0 .546.103.546.726v.933h-.328v-.933c0-.312-.11-.519-.328-.519-.218 0-.328.104-.328.311V2.49h-.328v-.933c0-.208-.109-.415-.327-.415-.219 0-.328.103-.328.31V2.49h-.328v-1.14z"/>
        </g>
        <path fill="url(#b)" d="M19.99 18.148c-.42-2.255-2.513-4.51-4.921-4.1-3.246.616-4.189 3.485-3.246 5.535 0 .103.104.205.21.308v-.103c-.838-1.947 0-4.612 3.036-5.227 2.303-.41 4.292 1.742 4.711 3.895.21 1.332-.314 3.69-1.152 4.1.943-.103 1.676-2.87 1.362-4.408z" transform="translate(.409)"/>
        <path fill="url(#c)" d="M2.91 7.457c-.1.107-.2.214-.3.214.1 0 .3-.107.401-.321.904-1.39 1.807-2.139 2.51-2.674-.703.642-1.707 1.284-2.61 2.78z" transform="translate(4.077 17.111)"/>
        <path fill="url(#d)" d="M2.91.078C1.005.398.1 2.858.403 4.676v.107C.2 3.073 1.004.933 2.71.613 5.02.184 6.324 2.11 6.223 3.82c0 .32-.3.535-.702.855.602-.427 1.003-.641 1.003-1.176C6.826 1.682 5.42-.35 2.911.078z" transform="translate(4.077 17.111)"/>
        <path fill="url(#e)" fill-rule="nonzero" d="M13.037 33.715c-1.24-.406-2.273-1.015-3.203-1.928a9.992 9.992 0 0 1-5.373-6.29 9.58 9.58 0 0 1-.31-3.449c-.206-.913 0-1.927.517-2.739a11.22 11.22 0 0 1 2.066-3.753c-2.583 2.942-3.72 6.695-2.686 10.347.723 2.841 2.686 4.971 5.166 6.189 1.033 1.116 2.273 1.826 3.72 2.13l.103-.507z" transform="translate(.409)"/>
        <path fill="#E6E7E8" d="M9.64 26.807c-.39 0-1.366-.622-1.561-1.037-.098.104-.098.208-.098.311 0 .415 1.171 1.141 1.561 1.141.586 0 1.464-.83 1.562-1.244v-.311c-.098.414-.879 1.14-1.464 1.14z"/>
        <path fill="#FFF" d="M9.892 20.56c-.538.257-1.184.17-1.4-.086-.215-.258 0-.687.539-.944.215-.086.538-.086.538-.086-.215.086-.215.172-.215.258.108.085.215.085.43.085.216-.085.216-.171.216-.257s-.108-.086-.215-.086c-.323 0-.754 0-1.077.172-.646.257-.862.772-.646 1.115.323.343 1.077.343 1.615.086.323-.172.538-.43.646-.6 0 .085-.215.257-.43.342zM18.84 19.261c-.639 0-1.065-.366-1.065-.732s.532-.64 1.065-.549c.213 0 .532.183.532.183-.213 0-.32 0-.32.183 0 .092.107.183.32.275.213 0 .32-.092.32-.183 0-.092 0-.092-.107-.183-.213-.183-.639-.366-.958-.366-.745 0-1.278.274-1.278.732 0 .457.64.823 1.278.823.426 0 .745-.091.958-.274-.213.091-.532.183-.745.091z"/>
    </g>
</svg>
