<svg viewBox="0 0 669 123" fill="#ffffff" xmlns="http://www.w3.org/2000/svg">
	<path fill-rule="evenodd" clip-rule="evenodd" d="M0 0L3.14722e-06 24L24 24L24 48L48 48L48 24L24 24L24 -3.14722e-06L0 0ZM99 123V99H123V123H99ZM86.2964 9.66842C77.2217 3.60495 66.5529 0.368588 55.6389 0.368589V22.2307C62.229 22.2307 68.671 24.1848 74.1505 27.8461C79.6299 31.5073 83.9006 36.7111 86.4225 42.7995C88.9444 48.888 89.6042 55.5875 88.3186 62.0509C87.0329 68.5143 83.8595 74.4513 79.1996 79.1112C74.5398 83.7711 68.6027 86.9445 62.1393 88.2301C55.6759 89.5158 48.9764 88.8559 42.888 86.334C36.7996 83.8121 31.5957 79.5414 27.9345 74.062C24.2733 68.5826 22.3191 62.1405 22.3191 55.5505H0.457029C0.457029 66.4645 3.69339 77.1333 9.75686 86.2079C15.8203 95.2826 24.4386 102.355 34.5217 106.532C44.6049 110.709 55.7002 111.801 66.4044 109.672C77.1087 107.543 86.9411 102.287 94.6585 94.57C102.376 86.8527 107.631 77.0202 109.761 66.316C111.89 55.6117 110.797 44.5165 106.62 34.4333C102.444 24.3501 95.371 15.7319 86.2964 9.66842Z" />
	<path d="M199.197 90.7255C207.797 90.7255 215.092 87.0024 219.664 81.0892C220.317 80.3227 220.1 79.4466 219.446 78.7896L212.914 72.3289C212.043 71.4529 210.846 71.5624 210.084 72.3289C207.144 75.2855 203.987 76.8185 199.85 76.8185C191.032 76.8185 185.479 70.2483 185.479 62.364C185.479 54.4797 191.032 48.3475 199.523 48.3475C203.878 48.3475 207.035 49.8806 209.975 52.8372C210.737 53.6037 211.934 53.7132 212.805 52.8372L219.338 46.3765C219.991 45.7194 220.208 44.8434 219.555 44.0769C214.983 38.1637 207.689 34.4405 198.87 34.4405C182.867 34.4405 171 46.486 171 62.364C171 78.4611 182.976 90.7255 199.197 90.7255Z" />
	<path d="M231.809 89.4115H243.567C244.546 89.4115 245.2 88.7545 245.2 87.7689V59.9549C245.2 52.3992 249.337 48.3475 255.651 48.3475C262.074 48.3475 265.558 52.3992 265.558 59.9549V87.7689C265.558 88.7545 266.211 89.4115 267.191 89.4115H278.84C279.82 89.4115 280.582 88.7545 280.582 87.7689V56.5603C280.582 42.5438 272.417 34.4405 261.312 34.4405C253.365 34.4405 248.248 38.3827 245.2 43.8579V12.7588C245.2 11.7732 244.546 11.1162 243.567 11.1162H231.809C230.829 11.1162 230.176 11.7732 230.176 12.7588V87.7689C230.176 88.7545 230.829 89.4115 231.809 89.4115Z" />
	<path d="M319.998 90.7255C327.51 90.7255 334.369 88.5355 338.941 83.9363C339.921 83.0603 340.03 82.2937 339.486 81.5272L335.457 75.9425C334.913 75.176 334.369 75.0665 333.607 75.5045C329.252 78.0231 325.333 78.7896 321.196 78.7896C312.595 78.7896 307.043 75.0665 305.41 68.2772H337.853C342.534 68.2772 343.731 65.3206 343.731 60.0644C343.731 46.486 334.369 34.4405 318.147 34.4405C301.708 34.4405 290.713 46.5955 290.713 62.364C290.713 78.5706 302.47 90.7255 319.998 90.7255ZM305.192 57.6554C306.499 50.5376 311.615 46.924 318.256 46.924C324.68 46.924 329.47 50.5376 330.341 57.6554H305.192Z" />
	<path d="M394.539 110.217H406.406C407.385 110.217 408.039 109.56 408.039 108.575V37.3971C408.039 36.4116 407.385 35.7546 406.406 35.7546H395.736C394.757 35.7546 394.103 36.4116 394.103 37.3971L393.886 43.3104C390.293 37.7257 384.523 34.4405 376.467 34.4405C361.443 34.4405 351.1 46.705 351.1 62.583C351.1 78.5706 361.443 90.7255 376.467 90.7255C383.761 90.7255 389.204 87.8784 392.906 83.0603V108.575C392.906 109.56 393.559 110.217 394.539 110.217ZM365.798 62.583C365.798 54.0417 371.677 48.238 379.624 48.238C387.571 48.238 393.124 53.9322 393.124 62.583C393.124 71.2338 387.571 76.928 379.624 76.928C371.677 76.928 365.798 71.2338 365.798 62.583Z" />
	<path d="M422.647 89.4115H434.405C435.385 89.4115 436.038 88.7545 436.038 87.7689V60.9405C436.038 53.2752 439.957 48.3475 447.36 48.3475C448.885 48.3475 450.082 48.5665 451.28 48.8951C452.695 49.2236 453.457 48.8951 453.457 47.581V37.9447C453.457 36.9591 453.239 36.3021 452.477 35.7546C451.606 35.0976 450.082 34.4405 447.578 34.4405C441.264 34.4405 437.889 38.7112 436.038 44.4054L435.603 37.5066C435.494 36.1926 434.949 35.7546 433.97 35.7546H422.647C421.668 35.7546 421.014 36.4116 421.014 37.3971V87.7689C421.014 88.7545 421.668 89.4115 422.647 89.4115Z" />
	<path d="M486.885 90.7255C502.888 90.7255 514.755 78.4611 514.755 62.583C514.755 46.705 502.888 34.4405 486.885 34.4405C470.772 34.4405 458.906 46.705 458.906 62.583C458.906 78.4611 470.772 90.7255 486.885 90.7255ZM473.385 62.583C473.385 53.8227 479.264 48.3475 486.885 48.3475C494.397 48.3475 500.276 53.8227 500.276 62.583C500.276 71.3433 494.397 76.8185 486.885 76.8185C479.264 76.8185 473.385 71.3433 473.385 62.583Z" />
	<path d="M550.143 90.7255C566.147 90.7255 578.013 78.4611 578.013 62.583C578.013 46.705 566.147 34.4405 550.143 34.4405C534.031 34.4405 522.164 46.705 522.164 62.583C522.164 78.4611 534.031 90.7255 550.143 90.7255ZM536.643 62.583C536.643 53.8227 542.522 48.3475 550.143 48.3475C557.655 48.3475 563.534 53.8227 563.534 62.583C563.534 71.3433 557.655 76.8185 550.143 76.8185C542.522 76.8185 536.643 71.3433 536.643 62.583Z" />
	<path d="M589.777 89.4115H601.535C602.515 89.4115 603.168 88.7545 603.168 87.7689V59.6264C603.168 52.2897 606.434 48.3475 612.095 48.3475C617.865 48.3475 620.587 52.2897 620.587 59.6264V87.7689C620.587 88.7545 621.24 89.4115 622.329 89.4115H633.978C634.958 89.4115 635.611 88.7545 635.611 87.7689V59.6264C635.611 52.2897 638.877 48.3475 644.538 48.3475C650.417 48.3475 653.03 52.2897 653.03 59.6264V87.7689C653.03 88.7545 653.683 89.4115 654.663 89.4115H666.421C667.4 89.4115 668.054 88.7545 668.054 87.7689V56.3413C668.054 42.3248 661.086 34.4405 649.655 34.4405C641.381 34.4405 636.155 38.4922 633.216 43.9674C630.276 37.7257 624.942 34.4405 618.083 34.4405C610.789 34.4405 605.999 38.1637 603.059 43.2008L602.733 37.5066C602.733 36.1926 602.079 35.7546 601.099 35.7546H589.777C588.797 35.7546 588.144 36.4116 588.144 37.3971V87.7689C588.144 88.7545 588.797 89.4115 589.777 89.4115Z" />
</svg>
