<svg xmlns="http://www.w3.org/2000/svg" xmlns:xlink="http://www.w3.org/1999/xlink" viewBox="0 0 579 236"><defs><style>.cls-1{fill:none;}.cls-2{clip-path:url(#clip-path);}.cls-3{fill:#1d1d1b;}</style><clipPath id="clip-path"><rect class="cls-1" x="25" y="27.93" width="180.13" height="180.13"/></clipPath></defs><g id="Layer_2" data-name="Layer 2"><g id="Layer_1-2" data-name="Layer 1"><rect class="cls-1" width="579" height="236"/><g id="Secondary_Mark_Black" data-name="Secondary Mark Black"><g class="cls-2"><g class="cls-2"><path class="cls-3" d="M90.24,142.32v-49H79.89v15.28a14.48,14.48,0,0,0-8-2.41A14,14,0,0,0,61,111a10,10,0,0,0-2.39,4.76A43.2,43.2,0,0,0,58,124.4a43.62,43.62,0,0,0,.57,8.75A10,10,0,0,0,61,137.93a14,14,0,0,0,10.92,4.78h0a15.22,15.22,0,0,0,8-2.26v1.87H90.24ZM68.34,124.4c0-2.48.13-4.84.89-6.3a3.78,3.78,0,0,1,1.57-1.67,6.82,6.82,0,0,1,3.35-.69,6.39,6.39,0,0,1,3.28.72,4.56,4.56,0,0,1,2,3,20.41,20.41,0,0,1,.43,4.91c0,2.36-.13,4.74-.89,6.26a3.88,3.88,0,0,1-1.57,1.75,6.38,6.38,0,0,1-3.28.73,6.93,6.93,0,0,1-3.35-.69,4.29,4.29,0,0,1-2-2.94,21.37,21.37,0,0,1-.43-5.11"/><path class="cls-3" d="M128.49,116.88a12,12,0,0,0,3.66-3.43,10.92,10.92,0,0,0,1.8-6.32,12.75,12.75,0,0,0-4.38-10c-2.9-2.47-7.09-3.81-12.36-3.81H95.77v49H119a16.81,16.81,0,0,0,11-3.92,13.83,13.83,0,0,0,4.77-10.64,12.84,12.84,0,0,0-2.36-7.49,11.43,11.43,0,0,0-3.9-3.4m-6.85-5.76a7.88,7.88,0,0,1-5.29,1.57h-9.8V102.47h9.8a7.84,7.84,0,0,1,5.28,1.6,4.81,4.81,0,0,1,0,7.05m-15.09,10.76h10.52a7.63,7.63,0,0,1,5.35,1.71,5.29,5.29,0,0,1,0,7.46,7.68,7.68,0,0,1-5.35,1.7H106.55Z"/><path class="cls-3" d="M163.38,109.72a10.35,10.35,0,0,0-7.33-3.11l-4.87-.34a4.36,4.36,0,0,1-2.41-.72,1,1,0,0,1-.29-.35.94.94,0,0,1-.07-.34,2,2,0,0,1,.15-.82,1.66,1.66,0,0,1,.92-.87,6.86,6.86,0,0,1,2.78-.46,11.76,11.76,0,0,1,6.59,2l1.37.9.3-.33,3.9-4.23,1.21-1.31-1.06-.87,0,0-.26-.21-.13-.1h0a18.3,18.3,0,0,0-11.88-3.85,14.12,14.12,0,0,0-8.49,2.45,9.1,9.1,0,0,0-2.68,3.21,10,10,0,0,0-1,4.45,8.85,8.85,0,0,0,2.83,6.76,11.3,11.3,0,0,0,6.74,2.67l5.21.45a4.56,4.56,0,0,1,2,.52,1,1,0,0,1,.34.37,1.3,1.3,0,0,1,.12.64,1.56,1.56,0,0,1-.23.87,2.75,2.75,0,0,1-1.45,1,8.61,8.61,0,0,1-2.92.45,12.41,12.41,0,0,1-4.75-.84,12.16,12.16,0,0,1-3.75-2.51l0,0-.93-.85-2.06,2.25L138.21,120l-.43.46,1,.9a19.36,19.36,0,0,0,13.51,5.29h0a16.44,16.44,0,0,0,9.3-2.51,9.41,9.41,0,0,0,3-3.19,9,9,0,0,0,1.12-4.41,10,10,0,0,0-2.32-6.77"/><rect class="cls-3" x="138.5" y="133.22" width="26.72" height="8.58"/><path class="cls-3" d="M115.07,27.93A90.07,90.07,0,1,0,205.13,118a90.07,90.07,0,0,0-90.06-90.07m0,172.17a82.1,82.1,0,1,1,82.1-82.1,82.1,82.1,0,0,1-82.1,82.1"/></g></g></g><path class="cls-3" d="M231,79.34h11.83V90H231Zm0,17.59h11.83v44.65H231Z"/><path class="cls-3" d="M263.81,103h.26c3-4.79,7.13-7.31,13.23-7.31,9.22,0,15.4,7,15.4,16.71v29.16H280.87V114.16c0-4.79-2.79-8.18-7.75-8.18-5.22,0-9.05,4.18-9.05,10.27v25.33H252.23V96.93h11.58Z"/><path class="cls-3" d="M299,127.13h11c.78,5.13,4.44,7.4,9.75,7.4s8.18-2,8.18-5.14c0-4.26-5.66-4.7-11.75-5.92-8-1.56-15.84-3.74-15.84-13.49s8-14.27,18.19-14.27c11.75,0,18.28,5.83,19.15,14.79H326.9c-.52-4.78-3.57-6.52-8.61-6.52-4.62,0-7.66,1.74-7.66,5,0,3.83,5.92,4.17,12.27,5.48,7.49,1.57,15.75,3.66,15.75,14.1,0,9-7.65,14.36-18.8,14.36C306.89,142.88,299.66,136.61,299,127.13Z"/><path class="cls-3" d="M342.22,96.93h6.18V83H360V96.93h7.66v7.83H360v23.67c0,3.31,1.83,4.44,4.44,4.44,1.48,0,3.48-.08,3.48-.08v8.7s-2.69.17-7.39.17c-5.75,0-12.1-2.26-12.1-10.7v-26.2h-6.18Z"/><path class="cls-3" d="M375.46,79.34H387.3V90H375.46Zm0,17.59H387.3v44.65H375.46Z"/><path class="cls-3" d="M394.09,96.93h6.18V83h11.57V96.93h7.66v7.83h-7.66v23.67c0,3.31,1.83,4.44,4.44,4.44,1.48,0,3.48-.08,3.48-.08v8.7s-2.7.17-7.4.17c-5.74,0-12.09-2.26-12.09-10.7v-26.2h-6.18Z"/><path class="cls-3" d="M455.53,141.58v-5.23h-.26c-3,4.09-6.53,6.44-12.8,6.44-9.92,0-15.49-6.35-15.49-16.1V96.93h11.75v27.76c0,5.22,2.35,8.1,7.4,8.1,5.57,0,9-4.18,9-10.1V96.93h11.84v44.65Z"/><path class="cls-3" d="M473.72,96.93h6.18V83h11.57V96.93h7.66v7.83h-7.66v23.67c0,3.31,1.83,4.44,4.44,4.44,1.48,0,3.48-.08,3.48-.08v8.7s-2.7.17-7.4.17c-5.74,0-12.09-2.26-12.09-10.7v-26.2h-6.18Z"/><path class="cls-3" d="M504.35,119.21c0-13.23,9-23.5,22-23.5,14.36,0,22,11,22,26.89H516c.87,6.88,4.7,11.14,11.41,11.14,4.61,0,7.31-2.09,8.61-5.48H547.7c-1.66,7.92-8.71,14.62-20.2,14.62C512.71,142.88,504.35,132.52,504.35,119.21Zm11.84-4.79H536c-.35-5.66-4.09-9.57-9.49-9.57C520.28,104.85,517.23,108.59,516.19,114.42Z"/></g></g></svg>