<svg xmlns="http://www.w3.org/2000/svg" width="125" height="20" viewBox="0 0 125 20" fill="none"><g clip-path="url(#clip0_5954_4378)"><path d="M30.7513 16.3055H24.0836L23.0838 19.5409C23.051 19.6487 22.951 19.7222 22.8385 19.7222H18.8063C18.6298 19.7222 18.5048 19.5472 18.5626 19.38L25.1085 0.451731C25.1444 0.348622 25.2413 0.27832 25.3522 0.27832H29.625C29.7343 0.27832 29.8327 0.348622 29.8687 0.451731L36.413 19.3816C36.4708 19.5487 36.3473 19.7237 36.1692 19.7237H31.998C31.8855 19.7237 31.7856 19.6503 31.7527 19.5425L30.7529 16.3071L30.7513 16.3055ZM27.3894 5.55562L25.2225 12.528H29.5562L27.3894 5.55562Z" fill="black"></path><path d="M43.6336 19.7237H39.8139C39.6718 19.7237 39.5562 19.6081 39.5562 19.4659V0.536093C39.5562 0.393927 39.6718 0.27832 39.8139 0.27832H46.3895C50.806 0.27832 53.5008 2.38893 53.5008 6.1399V7.11163C53.5008 9.55656 52.251 11.2782 50.2514 12.1952L54.1554 19.3425C54.2492 19.5144 54.1242 19.7237 53.9289 19.7237H49.6061C49.5077 19.7237 49.4187 19.669 49.3749 19.58L46.0848 12.9451H43.8899V19.4659C43.8899 19.6081 43.7742 19.7237 43.6321 19.7237H43.6336ZM43.8914 4.05742V9.16912H46.0583C48.0861 9.16912 49.0578 8.28019 49.0578 6.91947V6.33675C49.0578 4.9479 48.0861 4.05898 46.0583 4.05898H43.8914V4.05742Z" fill="black"></path><path d="M57.4209 0.536093C57.4209 0.393927 57.5365 0.27832 57.6787 0.27832H64.8104C69.5596 0.27832 72.4779 2.83417 72.4779 7.30691V12.7233C72.4779 17.2241 69.3112 19.7237 64.9229 19.7237H57.6802C57.5381 19.7237 57.4225 19.6081 57.4225 19.4659V0.536093H57.4209ZM61.7546 4.05742V15.9462H64.4495C66.8944 15.9462 68.0333 14.6136 68.0333 12.5295V7.50219C68.0333 5.39158 66.8944 4.05742 64.4776 4.05742H61.7562H61.7546Z" fill="black"></path><path d="M75.9771 12.0262V7.52851C75.9771 2.69489 79.1157 0 83.5603 0C88.005 0 90.6077 2.54335 90.9295 6.36151C90.942 6.50992 90.8217 6.63803 90.6717 6.63803H86.6708C86.4771 4.66646 85.56 3.77753 83.6431 3.77753C81.5591 3.77753 80.4202 5.33354 80.4202 7.72223V12.3059C80.4202 14.6665 81.5591 16.2225 83.6431 16.2225C85.56 16.2225 86.5052 15.3617 86.6708 13.362H90.6748C90.8233 13.362 90.9436 13.4885 90.9342 13.6354C90.6561 17.7722 87.83 20.0953 83.6994 19.9969C79.3938 19.8953 75.9756 16.3318 75.9756 12.0247L75.9771 12.0262Z" fill="black"></path><path d="M105.007 16.3055H98.3395L97.3396 19.5409C97.3068 19.6487 97.2069 19.7222 97.0944 19.7222H93.0622C92.8857 19.7222 92.7607 19.5472 92.8185 19.38L99.3643 0.451731C99.4003 0.348622 99.4971 0.27832 99.608 0.27832H103.881C103.99 0.27832 104.089 0.348622 104.125 0.451731L110.669 19.3816C110.727 19.5487 110.603 19.7237 110.425 19.7237H106.254C106.141 19.7237 106.041 19.6503 106.009 19.5425L105.009 16.3071L105.007 16.3055ZM101.645 5.55562L99.4784 12.528H103.812L101.645 5.55562Z" fill="black"></path><path d="M119.619 4.05585V19.4659C119.619 19.6081 119.503 19.7237 119.361 19.7237H115.543C115.401 19.7237 115.285 19.6081 115.285 19.4659V4.05585H110.153C110.011 4.05585 109.896 3.94025 109.896 3.79808V0.536093C109.896 0.393927 110.011 0.27832 110.153 0.27832H124.723C124.865 0.27832 124.981 0.393927 124.981 0.536093V3.79964C124.981 3.94181 124.865 4.05742 124.723 4.05742H119.619V4.05585Z" fill="black"></path><path d="M4.06186 0.27832H0.257772C0.115409 0.27832 0 0.393729 0 0.536093V4.34019C0 4.48255 0.115409 4.59796 0.257772 4.59796H4.06186C4.20423 4.59796 4.31964 4.48255 4.31964 4.34019V0.536093C4.31964 0.393729 4.20423 0.27832 4.06186 0.27832Z" fill="#0165FE"></path><path d="M15.1601 0.27832H11.3545C11.2123 0.27832 11.0967 0.393927 11.0967 0.536093V7.62092H0.257772C0.115607 7.62092 0 7.73653 0 7.8787V19.4675C0 19.6097 0.115607 19.7253 0.257772 19.7253H4.06343C4.20559 19.7253 4.3212 19.6097 4.3212 19.4675V11.3953H15.1617C15.3039 11.3953 15.4195 11.2797 15.4195 11.1376V0.536093C15.4195 0.393927 15.3039 0.27832 15.1617 0.27832H15.1601Z" fill="black"></path><path d="M15.1585 13.376H11.3545C11.2121 13.376 11.0967 13.4914 11.0967 13.6337V19.4656C11.0967 19.608 11.2121 19.7234 11.3545 19.7234H15.1585C15.3009 19.7234 15.4163 19.608 15.4163 19.4656V13.6337C15.4163 13.4914 15.3009 13.376 15.1585 13.376Z" fill="black"></path></g><defs><clipPath id="clip0_5954_4378"><rect width="124.98" height="20" fill="white"></rect></clipPath></defs></svg>