<?xml version="1.0" encoding="UTF-8"?> <svg xmlns="http://www.w3.org/2000/svg" xmlns:xlink="http://www.w3.org/1999/xlink" version="1.1" viewBox="0 0 365.5 93.1"><defs><style> .cls-1 { fill: #293c48; } .cls-2 { fill: none; } .cls-3 { fill: url(#linear-gradient); } .cls-4 { clip-path: url(#clippath); } </style><clipPath id="clippath"><path class="cls-2" d="M26.2,0C18.4,2.8,5,10.5.1,21.7c-.2.4-.2.9,0,1.3,3.4,8.4,4.6,16.7,4.6,23.6S3.5,61.8.1,70.1c-.2.4-.2.9,0,1.3,4.9,11.1,18.3,18.9,26.1,21.6.5.2,1.1-.2,1.1-.8v-32.3c0-.4.4-.8.8-.8h21c.4,0,.8.4.8.8v32.3c0,.6.6.9,1.1.8,7.8-2.8,21.2-10.5,26.1-21.6.2-.4.2-.9,0-1.3-3.4-8.3-4.6-16.7-4.6-23.6s1.2-15.2,4.6-23.6c.2-.4.2-.9,0-1.3C72.2,10.5,58.8,2.8,51,0c-.5-.2-1.1.2-1.1.8v32.3c0,.5-.4.8-.8.8h-21c-.4,0-.8-.4-.8-.8V.8c0-.5-.4-.8-.8-.8s-.2,0-.3,0Z"></path></clipPath><linearGradient id="linear-gradient" x1="-775.2" y1="-18.7" x2="-774.2" y2="-18.7" gradientTransform="translate(92400.3 2280.8) scale(119.2)" gradientUnits="userSpaceOnUse"><stop offset="0" stop-color="#ff6319"></stop><stop offset="1" stop-color="#ffa02f"></stop></linearGradient></defs><g><g id="Layer_1"><g id="Layer_1-2" data-name="Layer_1"><g><path class="cls-1" d="M143.5,31.1c-6.5,0-11.4,3.1-14,6.2V11.4l-10.4,2.8v57.5h10.4v-26.7c1.8-2.4,5-4.7,9-4.7s7.4,1.7,7.4,7.2v24.1h10.4v-28.2c0-7.7-4.2-12.5-12.9-12.5"></path><path class="cls-1" d="M176.1,48.2c.5-3.9,3.3-8.8,9.8-8.8s9.5,5,9.8,8.8h-19.5,0ZM185.9,31.1c-12.1,0-20.5,9.3-20.5,20.8s9.1,20.9,21.2,20.9,12.4-1.9,16.3-5.5l-4.6-6.7c-2.5,2.5-7.2,3.9-10.6,3.9-6.7,0-10.8-4.2-11.4-9.2h29.5v-2.3c0-13-8-21.8-19.9-21.8"></path><path class="cls-1" d="M235.3,40.4c3.6,0,6.5,1.5,8.4,4.3l6.8-6.4c-2.6-3.6-7.5-7.1-15.7-7.1-12.2,0-21,8.6-21,20.8s8.8,20.9,21,20.9,13-3.5,15.7-7.2l-6.8-6.3c-1.9,2.6-4.8,4.3-8.4,4.3-6.3,0-10.8-4.7-10.8-11.6s4.4-11.5,10.8-11.5"></path><path class="cls-1" d="M282,62.3c-.6.6-2,1.1-3.6,1.1-2.3,0-3.6-1.9-3.6-4.4v-17.9h9.4v-9.1h-9.4v-10.8h-9.1l-1.5,10.8h0s0,0,0,0h-6.6v9.1h6.6v20.7c0,7.1,3.9,10.8,11.2,10.8s7.1-1.1,8.7-2.5l-2.2-7.9h0Z"></path><path class="cls-1" d="M312.4,63.5c-6.5,0-10.1-5.3-10.1-11.6s3.6-11.5,10.1-11.5,10.2,5.3,10.2,11.5-3.7,11.6-10.2,11.6M312.4,31.1c-13,0-20.9,9.5-20.9,20.8s7.9,20.9,20.9,20.9,21-9.5,21-20.9-7.9-20.8-21-20.8"></path><path class="cls-1" d="M352.8,37.5v-5.4h-10.4v39.6h10.4v-26.2c1.7-2.5,6.3-4.5,9.8-4.5s2.1,0,2.9.2v-10.2c-4.9,0-9.9,2.9-12.6,6.4"></path></g><g class="cls-4"><rect class="cls-3" x="-21.1" y="-10.3" width="119.5" height="113.6" transform="translate(-21 56.7) rotate(-60)"></rect></g></g></g></g></svg> 