<svg id="b2db4e41-2f1a-4e4f-a1d4-45af42c3ead3" data-name="Layer 1" xmlns="http://www.w3.org/2000/svg" width="2.2245in" height="1.75917in" viewBox="0 0 160.16415 126.66017"><defs><style>.b6d2f02b-ec5c-421a-982b-ad87ccefef10{fill:#9d9795;}.e4407120-081c-4d61-89d2-47ec383498fa{fill:#cfb991;}.a17f0854-c120-49fe-af16-63f0e46aab01{fill:#231f20;}</style></defs><title>ATT_V-Full-RGB</title><path d="M28.45839,44.16281v7.40241l3.83388-.28355c.95185-.43837,1.933-1.01368,1.933-3.40276,0-1.80612-.08409-3.7161-3.58819-3.7161Zm-3.64994.06617-2.05958-.59957v-1.486H30.795c5.24027,0,7.17418,1.674,7.17418,5.63133,0,3.70209-2.11368,5.62113-6.25563,5.62113H28.45839v5.92836l2.08565.59947v1.38179h-7.8473V59.92366l2.11171-.59947V44.229Z"/><path d="M65.26263,44.17692v7.29987l3.87942-.26077c1.23148-.6105,1.8251-1.58676,1.8251-3.59776,0-2.1117-.68187-3.44134-2.872-3.44134Zm2.602,8.96842h-2.602v6.17885l2.08544.59947v1.38179h-7.8473V59.92366l2.11192-.59947V44.229L59.527,43.62941v-1.486h8.39953c4.97973,0,6.795,1.76659,6.795,5.16206,0,2.62373-1.02411,3.9896-3.38938,4.92737l3.5455,6.935,2.29082.75591v1.38179h-5.341l-3.96284-8.16011Z"/><path d="M84.49376,44.17692V59.32419H87.2374c1.88331,0,5.13037-.30558,5.13037-7.22172,0-5.44882-.97854-7.92555-5.13037-7.92555ZM78.73209,59.92366l2.08567-.57352V44.229l-2.05959-.59957v-1.486h9.2616c5.24006,0,8.29858,3.15928,8.29858,9.37169,0,7.02969-3.17107,9.79039-8.6982,9.79039H78.73209V59.92366Z"/><path d="M30.80507,71.28868c0,2.32935-1.34709,3.18574-3.55406,3.18574-2.2168,0-3.55424-1.30614-3.55424-3.18574v-4.6699l-1-.31334v-.87936h4.08438v.87936l-.988.31334v4.6699c0,1.205.46244,1.86033,1.77557,1.86033.64181,0,1.73049-.20035,1.73049-1.92055V66.61878l-1-.31334v-.87936h3.50585v.87936l-1,.31334v4.6699Z"/><polygon points="37.849 68.884 37.849 73.169 38.837 73.471 38.837 74.342 35.391 74.342 35.391 73.471 36.403 73.169 36.403 67.089 35.973 66.548 35.376 66.362 35.376 65.426 37.632 65.426 41.981 70.896 41.981 66.619 40.981 66.318 40.981 65.426 44.427 65.426 44.427 66.318 43.427 66.619 43.427 74.354 42.258 74.354 37.849 68.884 37.849 68.884"/><polygon points="51.863 73.169 52.863 73.471 52.863 74.342 48.767 74.342 48.767 73.471 49.767 73.169 49.767 66.607 48.767 66.305 48.767 65.426 52.863 65.426 52.863 66.305 51.863 66.607 51.863 73.169 51.863 73.169"/><polygon points="107.029 73.169 108.028 73.471 108.028 74.342 103.932 74.342 103.932 73.471 104.932 73.169 104.932 66.607 103.932 66.305 103.932 65.426 108.028 65.426 108.028 66.305 107.029 66.607 107.029 73.169 107.029 73.169"/><polygon points="62.237 74.342 60.309 74.342 57.478 66.619 56.478 66.305 56.478 65.426 60.791 65.426 60.791 66.305 59.779 66.619 61.659 72.113 63.574 66.619 62.574 66.305 62.574 65.426 66.08 65.426 66.08 66.305 65.08 66.619 62.237 74.342 62.237 74.342"/><polygon points="70.348 66.619 69.348 66.318 69.348 65.426 76.348 65.426 76.42 68.179 75.3 68.179 74.758 66.607 72.445 66.607 72.445 69.113 74.758 69.113 74.758 70.378 72.445 70.378 72.445 73.197 74.819 73.197 75.529 71.635 76.625 71.635 76.469 74.342 69.348 74.342 69.348 73.471 70.348 73.221 70.348 66.619 70.348 66.619"/><path d="M84.23057,66.61878v3.12049L85.64,69.61884a1.86935,1.86935,0,0,0,.699-1.554c0-.89186-.235-1.44607-1.15045-1.44607Zm.75914,4.08438h-.75914v2.46621l.99979.3013v.87127h-4.0962v-.87127l1-.3013V66.61878l-1-.30107v-.89163h4.07233c2.494,0,3.265.9639,3.265,2.46992a2.13668,2.13668,0,0,1-1.44231,2.33288L88.45944,73.137l1.25292.38539v.81959H86.70028l-1.71057-3.63878Z"/><path d="M93.34128,71.5707H94.58l.26518,1.25292a3.60661,3.60661,0,0,0,1.88178.51808,2.32083,2.32083,0,0,0,.289-.012,1.34133,1.34133,0,0,0,.55423-1.07227c0-2.08435-4.265-1.15659-4.265-4.20481,0-1.39766,1.27722-2.73489,3.39746-2.73489a5.54644,5.54644,0,0,1,2.42177.61441v2.34951h-1.1695l-.42173-1.494a4.06028,4.06028,0,0,0-1.44474-.28924,1.6186,1.6186,0,0,0-.24108.012A1.23263,1.23263,0,0,0,95.257,67.5586c0,1.78324,4.22888,1.14475,4.22888,4.13253,0,1.61443-1.45788,2.771-3.4218,2.771a5.04813,5.04813,0,0,1-2.7108-.80713l-.012-2.08433Z"/><polygon points="115.103 66.631 113.947 66.631 113.415 68.221 112.296 68.221 112.296 65.426 120.067 65.426 120.067 68.221 118.966 68.221 118.453 66.631 117.2 66.631 117.2 73.169 118.2 73.471 118.2 74.342 114.103 74.342 114.103 73.471 115.103 73.169 115.103 66.631 115.103 66.631"/><polygon points="127.058 70.908 124.72 66.619 123.72 66.305 123.72 65.426 128.034 65.426 128.034 66.305 127.022 66.619 128.492 69.522 129.973 66.619 128.974 66.305 128.974 65.426 132.492 65.426 132.492 66.305 131.492 66.619 129.142 70.884 129.142 73.169 130.142 73.471 130.142 74.342 126.046 74.342 126.046 73.471 127.058 73.169 127.058 70.908 127.058 70.908"/><polygon points="130.828 55.752 129.472 59.324 123.472 59.324 123.472 52.43 126.871 52.43 127.309 54.361 128.819 54.361 128.819 48.555 127.309 48.555 126.871 50.416 123.472 50.416 123.472 44.177 129.212 44.177 130.307 47.879 132.372 47.879 132.242 42.143 117.736 42.143 117.736 43.629 119.796 44.229 119.796 59.35 117.71 59.924 117.71 61.305 132.529 61.305 132.868 55.752 130.828 55.752 130.828 55.752"/><path d="M55.79783,54.71562c0,4.86163-2.32082,6.87659-7.07829,6.87659-4.38,0-7.54753-1.74961-7.54753-6.36863V44.229l-2.08565-.59957v-1.486h7.82146v1.486L44.822,44.229v10.9946c0,2.76348,1.27744,3.97732,4.32786,3.97732,2.10468,0,4.041-1.23339,4.041-4.23135V44.229l-2.05959-.59957v-1.486h6.75246v1.486l-2.08586.59957V54.71562Z"/><path d="M114.00686,54.71562c0,4.86163-2.32082,6.87659-7.07829,6.87659-4.38,0-7.54753-1.74961-7.54753-6.36863V44.229l-2.08567-.59957v-1.486h7.82148v1.486L103.031,44.229v10.9946c0,2.76348,1.27743,3.97732,4.32785,3.97732,2.10471,0,4.041-1.23339,4.041-4.23135V44.229l-2.0596-.59957v-1.486h6.75247v1.486l-2.08587.59957V54.71562Z"/><path class="b6d2f02b-ec5c-421a-982b-ad87ccefef10" d="M134.92094,70.89059a1.51536,1.51536,0,1,0,1.51525,1.51525,1.51692,1.51692,0,0,0-1.51525-1.51525Zm0,3.42726a1.912,1.912,0,1,1,1.912-1.912,1.9143,1.9143,0,0,1-1.912,1.912Z"/><path class="b6d2f02b-ec5c-421a-982b-ad87ccefef10" d="M134.67855,72.27424h.32189c.20845,0,.29078-.07971.29078-.22663,0-.14407-.09524-.22641-.28311-.22641h-.32956v.453Zm0,.30655v.71054h-.37574V71.51727h.78c.386,0,.59472.21131.59472.48677a.426.426,0,0,1-.25753.41954c.0876.03349.22139.12349.22139.44275v.08758a1.337,1.337,0,0,0,.02584.33742h-.36545a1.26409,1.26409,0,0,1-.03615-.39939v-.02561c0-.19313-.049-.28554-.3348-.28554Z"/><path d="M80.17349,33.63157l4.12078-9.68049H91.121c9.8804,0,13.63029-4.05665,16.22379-10.14816.95931-2.2551,2.56654-6.03012.44433-9.24084C105.679,1.369,101.19757,1,98.00915,1H61.72153L56.60331,13.01933h6.56742l-3.65414,8.58735H52.9343L47.81423,33.63157Z"/><path class="b6d2f02b-ec5c-421a-982b-ad87ccefef10" d="M105.92908,5.79094c-1.1536-1.7476-3.6718-2.56188-7.919-2.56188H63.19675l-3.22,7.5611h6.5674L60.989,23.83579H54.4086l-3.221,7.56762H78.70012l3.22281-7.56762H75.24862l.89983-2.11292H91.122c9.63035,0,12.19875-4.15889,14.1713-8.79188,1.06156-2.495,1.98369-5.10055.63582-7.14M80.80281,10.79016h10.9968c1.51526,0,1.29862.76044,1.09968,1.23169a3.698,3.698,0,0,1-3.52213,2.138H79.36848Z"/><path class="e4407120-081c-4d61-89d2-47ec383498fa" d="M98.01007,4.39012H63.96179L61.72989,9.6329h6.56927L61.75685,24.995H55.1755l-2.23469,5.24834H77.93415L80.16791,24.995H73.49546l1.888-4.43316H91.122c9.02147,0,11.28962-3.82143,13.10508-8.0854,1.81638-4.26579,2.80451-8.0863-6.217-8.0863M89.37716,15.319H77.61531L80.03684,9.6329H91.79961c2.08131,0,2.92071,1.06994,2.165,2.84352A4.81227,4.81227,0,0,1,89.37716,15.319"/><path class="a17f0854-c120-49fe-af16-63f0e46aab01" d="M38.129,98.73438c.06592.6709.352,1.24317,1.07813,1.24317.7041,0,1.001-.418,1.001-1.07813,0-.67187-.30761-1.0459-1.27587-1.51855-1.24317-.583-1.74952-1.11133-1.74952-2.21094a2.03042,2.03042,0,0,1,4.05957.07617H40.1095c-.04443-.3955-.1543-1.11035-.91308-1.11035a.81945.81945,0,0,0-.8584.93457c0,.59375.26416.87988,1.166,1.29785,1.32032.61621,1.88135,1.22168,1.88135,2.43164a1.99483,1.99483,0,0,1-2.21143,2.10157,2.0198,2.0198,0,0,1-2.20019-2.167Z"/><path class="a17f0854-c120-49fe-af16-63f0e46aab01" d="M46.02747,98.93165a1.83591,1.83591,0,0,1-1.92529,1.94727c-1.57324,0-1.98047-1.29786-1.98047-2.96973,0-1.5293.50635-2.88281,2.04639-2.88281a1.76526,1.76526,0,0,1,1.85937,1.88183H44.8722c-.01075-.2207-.05469-.93554-.71485-.93554-.64941,0-.88037.72558-.88037,1.94726,0,1.27637.231,2.002.8584,2.002.68213,0,.748-.68164.78076-.99023Z"/><path class="a17f0854-c120-49fe-af16-63f0e46aab01" d="M48.0177,92.958v2.76172a1.33174,1.33174,0,0,1,1.29834-.69336c.90235,0,1.41944.57226,1.41944,1.749v4.00488H49.591V97.00685c0-.60547-.13184-1.001-.73682-1.001-.63818,0-.83643.50586-.83643,1.3418v3.43261H46.88489V92.958Z"/><path class="a17f0854-c120-49fe-af16-63f0e46aab01" d="M55.80628,97.89747c0,2.03613-.72608,2.99316-2.0791,2.99316-1.35352,0-2.05762-.9248-2.05762-2.9707,0-1.98047.8252-2.89355,2.1123-2.89355C55.10218,95.02638,55.80628,96.00587,55.80628,97.89747Zm-2.98145.02246c0,1.32031.26416,2.002.92432,2.002.63818,0,.90186-.68164.90186-1.99121,0-1.32031-.26368-1.93652-.90186-1.93652C53.1222,95.99415,52.82483,96.59962,52.82483,97.91993Z"/><path class="a17f0854-c120-49fe-af16-63f0e46aab01" d="M60.65686,97.89747c0,2.03613-.72607,2.99316-2.0791,2.99316-1.35351,0-2.05761-.9248-2.05761-2.9707,0-1.98047.82519-2.89355,2.1123-2.89355C59.95276,95.02638,60.65686,96.00587,60.65686,97.89747Zm-2.98144.02246c0,1.32031.26416,2.002.92432,2.002.63818,0,.90185-.68164.90185-1.99121,0-1.32031-.26367-1.93652-.90185-1.93652C57.97278,95.99415,57.67542,96.59962,57.67542,97.91993Z"/><path class="a17f0854-c120-49fe-af16-63f0e46aab01" d="M61.60218,100.78028V92.958h1.144v7.82226Z"/><path class="a17f0854-c120-49fe-af16-63f0e46aab01" d="M69.89661,97.89747c0,2.03613-.72607,2.99316-2.0791,2.99316-1.35352,0-2.05762-.9248-2.05762-2.9707,0-1.98047.8252-2.89355,2.11231-2.89355C69.19251,95.02638,69.89661,96.00587,69.89661,97.89747Zm-2.98144.02246c0,1.32031.26416,2.002.92431,2.002.63819,0,.90186-.68164.90186-1.99121,0-1.32031-.26367-1.93652-.90186-1.93652C67.21253,95.99415,66.91517,96.59962,66.91517,97.91993Z"/><path class="a17f0854-c120-49fe-af16-63f0e46aab01" d="M70.99671,100.78028v-4.709h-.68213V95.125h.68213v-.627c0-.91309.396-1.60547,1.48486-1.60547a2.14657,2.14657,0,0,1,.50635.05468V93.915a1.557,1.557,0,0,0-.33008-.0332c-.396,0-.51709.23144-.51709.68261V95.125h.83594v.94629h-.83594v4.709Z"/><path class="a17f0854-c120-49fe-af16-63f0e46aab01" d="M76.59534,98.73438l-.42871,2.0459H75.01136l1.749-7.459h1.49609l1.78223,7.459h-1.21l-.43994-2.0459Zm1.58447-1.01269c-.33007-1.5625-.57226-2.65137-.68212-3.32227h-.03321c-.08789.68164-.352,1.87012-.66015,3.32227Z"/><path class="a17f0854-c120-49fe-af16-63f0e46aab01" d="M81.10511,95.125c.38525,1.68359.82519,3.58691.94629,4.44531h.01074c.09912-.792.69336-2.98144,1.01221-4.44531h1.144l-1.59522,5.65527H81.39124L79.88392,95.125Z"/><path class="a17f0854-c120-49fe-af16-63f0e46aab01" d="M84.85608,95.125h1.144v5.65527h-1.144Zm.01123-.91309V92.958h1.144v1.2539Z"/><path class="a17f0854-c120-49fe-af16-63f0e46aab01" d="M90.7306,99.625c0,.30859.0332.92383.04394,1.15527H89.74085a3.80376,3.80376,0,0,1-.05518-.56152,1.34234,1.34234,0,0,1-1.29834.66016,1.49378,1.49378,0,0,1-1.49609-1.66114c0-1.12207.77-1.84765,2.22217-1.84765a3.502,3.502,0,0,1,.50635.02148v-.6709c0-.36328-.06641-.80273-.69336-.80273-.63819,0-.70411.42871-.73682.80273H87.11145a1.61637,1.61637,0,0,1,1.85889-1.69433c1.16651,0,1.76026.5498,1.76026,1.61718Zm-1.08887-1.39746a2.95941,2.95941,0,0,0-.47315-.02149c-.82519,0-1.144.39551-1.144.91309a.72945.72945,0,0,0,.72607.8252c.71485,0,.89112-.52833.89112-1.48536Z"/><path class="a17f0854-c120-49fe-af16-63f0e46aab01" d="M91.32386,95.125h.75927V93.68458h1.13331V95.125h.91308v.94629h-.91308v3.30078c0,.35254.06591.5498.48388.5498a1.65366,1.65366,0,0,0,.34131-.02148v.84668a2.01579,2.01579,0,0,1-.748.11035c-.82519,0-1.21045-.30859-1.21045-1.28711v-3.499h-.75927Z"/><path class="a17f0854-c120-49fe-af16-63f0e46aab01" d="M94.84388,95.125h1.144v5.65527h-1.144Zm.01123-.91309V92.958h1.144v1.2539Z"/><path class="a17f0854-c120-49fe-af16-63f0e46aab01" d="M101.08118,97.89747c0,2.03613-.72607,2.99316-2.0791,2.99316-1.35352,0-2.05762-.9248-2.05762-2.9707,0-1.98047.8252-2.89355,2.11231-2.89355C100.37708,95.02638,101.08118,96.00587,101.08118,97.89747Zm-2.98144.02246c0,1.32031.26416,2.002.92431,2.002.63819,0,.90186-.68164.90186-1.99121,0-1.32031-.26367-1.93652-.90186-1.93652C98.3971,95.99415,98.09974,96.59962,98.09974,97.91993Z"/><path class="a17f0854-c120-49fe-af16-63f0e46aab01" d="M102.02649,96.88575c0-1.166,0-1.47461-.01074-1.76074h1.1001a4.7651,4.7651,0,0,1,.03271.63867,1.32652,1.32652,0,0,1,1.2876-.7373c.87988,0,1.45215.53906,1.45215,1.71679v4.03711h-1.14453V96.9961c0-.60547-.15381-.99023-.71484-.99023-.59424,0-.8584.35156-.8584,1.32031v3.4541h-1.14405Z"/><path class="a17f0854-c120-49fe-af16-63f0e46aab01" d="M112.72962,99.625c0,.30859.0332.92383.04394,1.15527h-1.03369a3.80387,3.80387,0,0,1-.05517-.56152,1.34235,1.34235,0,0,1-1.29834.66016,1.49378,1.49378,0,0,1-1.4961-1.66114c0-1.12207.77-1.84765,2.22217-1.84765a3.502,3.502,0,0,1,.50635.02148v-.6709c0-.36328-.06641-.80273-.69336-.80273-.63818,0-.7041.42871-.73682.80273h-1.07812a1.61636,1.61636,0,0,1,1.85888-1.69433c1.16651,0,1.76026.5498,1.76026,1.61718Zm-1.08887-1.39746a2.95928,2.95928,0,0,0-.47314-.02149c-.8252,0-1.144.39551-1.144.91309a.72946.72946,0,0,0,.72608.8252c.71484,0,.89111-.52833.89111-1.48536Z"/><path class="a17f0854-c120-49fe-af16-63f0e46aab01" d="M113.96106,96.88575c0-1.166,0-1.47461-.01074-1.76074h1.1001a4.7651,4.7651,0,0,1,.03271.63867,1.32652,1.32652,0,0,1,1.2876-.7373c.87988,0,1.45215.53906,1.45215,1.71679v4.03711h-1.14453V96.9961c0-.60547-.15381-.99023-.71484-.99023-.59424,0-.8584.35156-.8584,1.32031v3.4541h-1.144Z"/><path class="a17f0854-c120-49fe-af16-63f0e46aab01" d="M122.83851,92.958v6.293c0,.62695,0,1.19921.01123,1.52929h-1.10059c-.01074-.14258-.03271-.46191-.03271-.66015a1.19354,1.19354,0,0,1-1.28711.75879c-1.17725,0-1.66163-1.04493-1.66163-2.98145,0-1.749.59424-2.87109,1.87061-2.87109.64893,0,.9458.25293,1.05615.49511V92.958Zm-2.03516,6.94238c.74805,0,.92383-.59473.92383-2.02441,0-1.41895-.14307-1.87012-.85791-1.87012-.583,0-.94629.47265-.94629,1.91406C119.923,99.33888,120.20911,99.9004,120.80335,99.9004Z"/><path class="a17f0854-c120-49fe-af16-63f0e46aab01" d="M29.7804,106.34474H28.16321V105.3213h4.38965v1.02344H30.93519v6.43554H29.7804Z"/><path class="a17f0854-c120-49fe-af16-63f0e46aab01" d="M32.40931,109.04005c0-.91309,0-1.50781-.01075-1.915h1.08887a9.37956,9.37956,0,0,1,.0332.958,1.46126,1.46126,0,0,1,1.48536-1.0459v1.26562c-.93555,0-1.45264.38477-1.45264,1.44141v3.03613h-1.144Z"/><path class="a17f0854-c120-49fe-af16-63f0e46aab01" d="M39.16321,111.625c0,.30859.03321.92383.044,1.15527H38.17347a3.80376,3.80376,0,0,1-.05518-.56152,1.34234,1.34234,0,0,1-1.29834.66016,1.49378,1.49378,0,0,1-1.49609-1.66114c0-1.12207.77-1.84765,2.22217-1.84765a3.50181,3.50181,0,0,1,.50634.02148v-.6709c0-.36328-.0664-.80273-.69336-.80273-.63818,0-.7041.42871-.73681.80273H35.54407a1.61637,1.61637,0,0,1,1.85889-1.69433c1.1665,0,1.76025.5498,1.76025,1.61718Zm-1.08886-1.39746a2.95941,2.95941,0,0,0-.47315-.02149c-.82519,0-1.144.39551-1.144.91309a.72945.72945,0,0,0,.72607.8252c.71485,0,.89112-.52833.89112-1.48536Z"/><path class="a17f0854-c120-49fe-af16-63f0e46aab01" d="M40.39466,108.88575c0-1.166,0-1.47461-.01074-1.76074H41.484a4.7631,4.7631,0,0,1,.03272.63867,1.32651,1.32651,0,0,1,1.2876-.7373c.87988,0,1.45214.53906,1.45214,1.71679v4.03711H43.11194V108.9961c0-.60547-.15381-.99023-.71484-.99023-.59424,0-.8584.35156-.8584,1.32031v3.4541h-1.144Z"/><path class="a17f0854-c120-49fe-af16-63f0e46aab01" d="M46.21351,111.09669a.81605.81605,0,0,0,.82519.90234.649.649,0,0,0,.72608-.7041c0-.46191-.21973-.69336-.91309-.957-1.27588-.47266-1.606-.92383-1.606-1.73828a1.554,1.554,0,0,1,1.76026-1.57324,1.59389,1.59389,0,0,1,1.771,1.70507h-1.1001a.71607.71607,0,0,0-.7041-.82519.56657.56657,0,0,0-.61621.61621c0,.38574.19824.57227.91309.83594,1.1665.44043,1.62842.88086,1.62842,1.80469,0,1.08886-.68213,1.71582-1.91407,1.71582a1.6954,1.6954,0,0,1-1.89257-1.78223Z"/><path class="a17f0854-c120-49fe-af16-63f0e46aab01" d="M49.71155,114.8379v-6.07324c0-.77051,0-1.28711-.01074-1.63965h1.1001a5.32771,5.32771,0,0,1,.03271.67187,1.28427,1.28427,0,0,1,1.29834-.7705c1.05615,0,1.65039.92382,1.65039,2.83886,0,2.14453-.72607,3.02539-1.81543,3.02539a1.14438,1.14438,0,0,1-1.11132-.59472v2.542Zm2.00244-6.832c-.72607,0-.90234.69238-.90234,1.88086,0,1.30957.08838,2.02441.88037,2.02441.627,0,.93506-.7041.93506-1.99121C52.62708,108.54493,52.3302,108.00587,51.714,108.00587Z"/><path class="a17f0854-c120-49fe-af16-63f0e46aab01" d="M58.64417,109.89747c0,2.03613-.72607,2.99316-2.0791,2.99316-1.35352,0-2.05762-.9248-2.05762-2.9707,0-1.98047.8252-2.89355,2.11231-2.89355C57.94007,107.02638,58.64417,108.00587,58.64417,109.89747Zm-2.98145.02246c0,1.32031.26416,2.002.92432,2.002.63818,0,.90186-.68164.90186-1.99121,0-1.32031-.26368-1.93652-.90186-1.93652C55.96009,107.99415,55.66272,108.59962,55.66272,109.91993Z"/><path class="a17f0854-c120-49fe-af16-63f0e46aab01" d="M59.58948,109.04005c0-.91309,0-1.50781-.01074-1.915h1.08887a9.37956,9.37956,0,0,1,.0332.958,1.46086,1.46086,0,0,1,1.48535-1.0459v1.26562c-.93555,0-1.45263.38477-1.45263,1.44141v3.03613h-1.144Z"/><path class="a17f0854-c120-49fe-af16-63f0e46aab01" d="M62.63587,107.125h.75928v-1.44043h1.1333V107.125h.91308v.94629h-.91308v3.30078c0,.35254.06591.5498.48388.5498a1.65366,1.65366,0,0,0,.34131-.02148v.84668a2.01684,2.01684,0,0,1-.74853.11035c-.82471,0-1.21-.30859-1.21-1.28711v-3.499h-.75928Z"/><path class="a17f0854-c120-49fe-af16-63f0e46aab01" d="M69.75306,111.625c0,.30859.0332.92383.04394,1.15527H68.76331a3.80376,3.80376,0,0,1-.05518-.56152,1.34234,1.34234,0,0,1-1.29834.66016,1.49378,1.49378,0,0,1-1.49609-1.66114c0-1.12207.77-1.84765,2.22217-1.84765a3.502,3.502,0,0,1,.50635.02148v-.6709c0-.36328-.06641-.80273-.69336-.80273-.63819,0-.7041.42871-.73682.80273H66.13392a1.61636,1.61636,0,0,1,1.85888-1.69433c1.16651,0,1.76026.5498,1.76026,1.61718Zm-1.08887-1.39746a2.95941,2.95941,0,0,0-.47315-.02149c-.82519,0-1.144.39551-1.144.91309a.72946.72946,0,0,0,.72608.8252c.71484,0,.89111-.52833.89111-1.48536Z"/><path class="a17f0854-c120-49fe-af16-63f0e46aab01" d="M70.34632,107.125h.75928v-1.44043h1.1333V107.125H73.152v.94629H72.2389v3.30078c0,.35254.06591.5498.48388.5498a1.65366,1.65366,0,0,0,.34131-.02148v.84668a2.01579,2.01579,0,0,1-.748.11035c-.82519,0-1.21044-.30859-1.21044-1.28711v-3.499h-.75928Z"/><path class="a17f0854-c120-49fe-af16-63f0e46aab01" d="M73.86634,107.125h1.144v5.65527h-1.144Zm.01123-.91309V104.958h1.144v1.2539Z"/><path class="a17f0854-c120-49fe-af16-63f0e46aab01" d="M80.10364,109.89747c0,2.03613-.72607,2.99316-2.0791,2.99316-1.35351,0-2.05762-.9248-2.05762-2.9707,0-1.98047.8252-2.89355,2.11231-2.89355C79.39954,107.02638,80.10364,108.00587,80.10364,109.89747Zm-2.98144.02246c0,1.32031.26416,2.002.92431,2.002.63819,0,.90186-.68164.90186-1.99121,0-1.32031-.26367-1.93652-.90186-1.93652C77.41956,107.99415,77.1222,108.59962,77.1222,109.91993Z"/><path class="a17f0854-c120-49fe-af16-63f0e46aab01" d="M81.049,108.88575c0-1.166,0-1.47461-.01074-1.76074h1.1001a4.76479,4.76479,0,0,1,.03272.63867,1.3265,1.3265,0,0,1,1.28759-.7373c.87989,0,1.45215.53906,1.45215,1.71679v4.03711H83.76624V108.9961c0-.60547-.15381-.99023-.71484-.99023-.59424,0-.8584.35156-.8584,1.32031v3.4541H81.049Z"/><path class="a17f0854-c120-49fe-af16-63f0e46aab01" d="M89.233,106.34474H87.61585V105.3213H92.0055v1.02344H90.38782v6.43554H89.233Z"/><path class="a17f0854-c120-49fe-af16-63f0e46aab01" d="M92.65442,110.22755c0,.84765.1211,1.70605.90186,1.70605a.84105.84105,0,0,0,.84717-.83691h1.10009a1.88554,1.88554,0,0,1-1.96923,1.79394c-1.771,0-2.02442-1.541-2.02442-2.96,0-1.793.66016-2.90429,2.05762-2.90429,1.59521,0,1.98,1.23242,1.98,2.68457,0,.165-.01074.40722-.022.5166Zm1.76026-.83594c0-.69336-.11035-1.41894-.84717-1.41894-.84717,0-.89111,1.01171-.90234,1.41894Z"/><path class="a17f0854-c120-49fe-af16-63f0e46aab01" d="M100.20032,110.93165a1.8359,1.8359,0,0,1-1.92529,1.94727c-1.57324,0-1.98047-1.29786-1.98047-2.96973,0-1.5293.50635-2.88281,2.04639-2.88281a1.76526,1.76526,0,0,1,1.85937,1.88183H99.04505c-.01074-.2207-.05469-.93554-.71485-.93554-.64941,0-.88037.72558-.88037,1.94726,0,1.27637.231,2.002.8584,2.002.68213,0,.74805-.68164.78076-.99023Z"/><path class="a17f0854-c120-49fe-af16-63f0e46aab01" d="M102.19056,104.958v2.76172a1.33172,1.33172,0,0,1,1.29834-.69336c.90234,0,1.41943.57226,1.41943,1.749v4.00488H103.7638v-3.77343c0-.60547-.13184-1.001-.73682-1.001-.63818,0-.83642.50586-.83642,1.3418v3.43261h-1.13282V104.958Z"/><path class="a17f0854-c120-49fe-af16-63f0e46aab01" d="M106.10657,108.88575c0-1.166,0-1.47461-.01074-1.76074h1.1001a4.7651,4.7651,0,0,1,.03271.63867,1.32651,1.32651,0,0,1,1.2876-.7373c.87988,0,1.45215.53906,1.45215,1.71679v4.03711h-1.14453V108.9961c0-.60547-.15381-.99023-.71485-.99023-.59423,0-.8584.35156-.8584,1.32031v3.4541h-1.144Z"/><path class="a17f0854-c120-49fe-af16-63f0e46aab01" d="M115.04993,109.89747c0,2.03613-.72607,2.99316-2.0791,2.99316-1.35352,0-2.05762-.9248-2.05762-2.9707,0-1.98047.8252-2.89355,2.11231-2.89355C114.34583,107.02638,115.04993,108.00587,115.04993,109.89747Zm-2.98144.02246c0,1.32031.26416,2.002.92431,2.002.63819,0,.90186-.68164.90186-1.99121,0-1.32031-.26367-1.93652-.90186-1.93652C112.36585,107.99415,112.06849,108.59962,112.06849,109.91993Z"/><path class="a17f0854-c120-49fe-af16-63f0e46aab01" d="M115.99524,112.78028V104.958h1.14405v7.82226Z"/><path class="a17f0854-c120-49fe-af16-63f0e46aab01" d="M122.22181,109.89747c0,2.03613-.72608,2.99316-2.07911,2.99316-1.35351,0-2.05761-.9248-2.05761-2.9707,0-1.98047.82519-2.89355,2.1123-2.89355C121.5177,107.02638,122.22181,108.00587,122.22181,109.89747Zm-2.98145.02246c0,1.32031.26416,2.002.92432,2.002.63818,0,.90185-.68164.90185-1.99121,0-1.32031-.26367-1.93652-.90185-1.93652C119.53772,107.99415,119.24036,108.59962,119.24036,109.91993Z"/><path class="a17f0854-c120-49fe-af16-63f0e46aab01" d="M127.03968,112.35157c0,1.57324-.4292,2.57422-2.11231,2.57422-1.55127,0-1.89258-.94629-1.92529-1.61719h1.144c.022.21973.1211.68164.8252.68164.792,0,.9458-.59375.9458-1.63867v-.3418a1.22725,1.22725,0,0,1-1.24317.73731c-1.188,0-1.7163-1.02246-1.7163-2.72852,0-1.96875.71533-2.99218,1.8374-2.99218.748,0,1.02344.36328,1.12207.64941,0-.19824.0332-.418.04443-.55078h1.1001c-.01123.33008-.022.90234-.022,1.68359Zm-2.01367-.57226c.7373,0,.91308-.71485.91308-1.958,0-1.123-.09863-1.81543-.85791-1.81543-.61621,0-.957.63769-.957,1.98047C124.12415,111.21778,124.443,111.77931,125.026,111.77931Z"/><path class="a17f0854-c120-49fe-af16-63f0e46aab01" d="M128.85413,107.125c.48438,2.00293.90234,3.59766.96826,4.25781h.01123c.13184-.75879.54981-2.50781.979-4.25781h1.15527l-1.63965,5.91894c-.47265,1.72754-1.03418,1.8711-1.82617,1.8711a2.21619,2.21619,0,0,1-.47314-.04492v-.96778a3.75692,3.75692,0,0,0,.39648.02246c.52783,0,.69287-.29785.86865-1.05664L127.611,107.125Z"/></svg>