<svg id="b8fa5ca3-b31e-4f35-a279-a21611adb821" data-name="Layer 1" xmlns="http://www.w3.org/2000/svg" width="4.72778in" height="0.50338in" viewBox="0 0 340.40048 36.24316"><defs><style>.f4e6a752-b6f1-4c9b-aefc-166e375b9505{fill:#231f20;}.f54226d3-bd4e-442d-9281-c9e27eb5c9fd{fill:#9d9795;}.b213de10-c6ea-4b98-8129-3efef4dd7e3b{fill:#cfb991;}</style></defs><title>ATT_H-Full-RGB_1</title><path class="f4e6a752-b6f1-4c9b-aefc-166e375b9505" d="M204.49962,13.30322c.06543.6709.35156,1.24317,1.07812,1.24317.70411,0,1.001-.418,1.001-1.07813,0-.67187-.30762-1.0459-1.27637-1.51855-1.24316-.583-1.749-1.11133-1.749-2.21094a2.03042,2.03042,0,0,1,4.05957.07617h-1.13281c-.04492-.39551-.1543-1.11035-.91309-1.11035a.81922.81922,0,0,0-.8584.93457c0,.59375.26367.87988,1.166,1.29785,1.32031.61621,1.88086,1.22168,1.88086,2.43164a1.99468,1.99468,0,0,1-2.21094,2.10157,2.01929,2.01929,0,0,1-2.20019-2.167Z"/><path class="f4e6a752-b6f1-4c9b-aefc-166e375b9505" d="M212.39806,13.50049a1.83637,1.83637,0,0,1-1.92579,1.94727c-1.57324,0-1.98046-1.29786-1.98046-2.96973,0-1.5293.50683-2.88281,2.04687-2.88281a1.76527,1.76527,0,0,1,1.85938,1.88183h-1.15528c-.01074-.2207-.05468-.93554-.71484-.93554-.64942,0-.88086.72558-.88086,1.94726,0,1.27637.23144,2.00195.8584,2.00195.68262,0,.748-.68164.78125-.99023Z"/><path class="f4e6a752-b6f1-4c9b-aefc-166e375b9505" d="M214.38829,7.52686v2.76172a1.33044,1.33044,0,0,1,1.29785-.69336c.90235,0,1.41992.57226,1.41992,1.749v4.00488h-1.14453V11.57568c0-.60546-.13183-1.001-.7373-1.001-.6377,0-.83594.50586-.83594,1.3418v3.43261h-1.13281V7.52686Z"/><path class="f4e6a752-b6f1-4c9b-aefc-166e375b9505" d="M222.17638,12.46631c0,2.03613-.72559,2.99316-2.07911,2.99316s-2.05761-.9248-2.05761-2.9707c0-1.98047.82519-2.89355,2.1123-2.89355C221.47227,9.59522,222.17638,10.57471,222.17638,12.46631Zm-2.98145.02246c0,1.32031.26465,2.00195.92481,2.00195.63769,0,.90136-.68164.90136-1.99121,0-1.32031-.26367-1.93652-.90136-1.93652C219.49278,10.563,219.19493,11.16846,219.19493,12.48877Z"/><path class="f4e6a752-b6f1-4c9b-aefc-166e375b9505" d="M227.027,12.46631c0,2.03613-.72558,2.99316-2.0791,2.99316s-2.05762-.9248-2.05762-2.9707c0-1.98047.8252-2.89355,2.11231-2.89355C226.32286,9.59522,227.027,10.57471,227.027,12.46631Zm-2.98144.02246c0,1.32031.26465,2.00195.9248,2.00195.6377,0,.90137-.68164.90137-1.99121,0-1.32031-.26367-1.93652-.90137-1.93652C224.34337,10.563,224.04552,11.16846,224.04552,12.48877Z"/><path class="f4e6a752-b6f1-4c9b-aefc-166e375b9505" d="M227.97227,15.34912V7.52686h1.14454v7.82226Z"/><path class="f4e6a752-b6f1-4c9b-aefc-166e375b9505" d="M236.2672,12.46631c0,2.03613-.72657,2.99316-2.0791,2.99316-1.35352,0-2.05762-.9248-2.05762-2.9707,0-1.98047.82519-2.89355,2.1123-2.89355C235.5631,9.59522,236.2672,10.57471,236.2672,12.46631Zm-2.98145.02246c0,1.32031.26367,2.00195.92383,2.00195.63867,0,.90234-.68164.90234-1.99121,0-1.32031-.26367-1.93652-.90234-1.93652C233.58263,10.563,233.28575,11.16846,233.28575,12.48877Z"/><path class="f4e6a752-b6f1-4c9b-aefc-166e375b9505" d="M237.36681,15.34912v-4.709h-.68164V9.69385h.68164V9.0669c0-.91309.39648-1.60547,1.48535-1.60547a2.14518,2.14518,0,0,1,.50586.05468v.96778a1.55374,1.55374,0,0,0-.33008-.03321c-.39551,0-.5166.23145-.5166.68262v.56055h.83593v.94629h-.83593v4.709Z"/><path class="f4e6a752-b6f1-4c9b-aefc-166e375b9505" d="M242.96544,13.30322l-.42871,2.0459h-1.15528l1.749-7.459h1.49609l1.78223,7.459h-1.21l-.43946-2.0459Zm1.585-1.01269c-.33008-1.5625-.57227-2.65137-.68262-3.32227h-.0332c-.08789.68164-.35156,1.87012-.66016,3.32227Z"/><path class="f4e6a752-b6f1-4c9b-aefc-166e375b9505" d="M247.4752,9.69385c.38575,1.68359.8252,3.58691.94629,4.44531h.01075c.09961-.792.69336-2.98144,1.01269-4.44531h1.14356l-1.59473,5.65527h-1.23242L246.2545,9.69385Z"/><path class="f4e6a752-b6f1-4c9b-aefc-166e375b9505" d="M251.22618,9.69385h1.14453v5.65527h-1.14453Zm.01172-.91309V7.52686h1.14355v1.2539Z"/><path class="f4e6a752-b6f1-4c9b-aefc-166e375b9505" d="M257.10118,14.19385c0,.30859.0332.92383.04395,1.15527H256.111a3.80938,3.80938,0,0,1-.05469-.56152,1.34316,1.34316,0,0,1-1.29883.66016,1.49378,1.49378,0,0,1-1.49609-1.66114c0-1.12207.77051-1.84765,2.22265-1.84765a3.49129,3.49129,0,0,1,.50586.02148v-.6709c0-.36328-.0664-.80273-.69336-.80273-.63769,0-.7041.42871-.73632.80273H253.482a1.61572,1.61572,0,0,1,1.8584-1.69433c1.167,0,1.76074.5498,1.76074,1.61718Zm-1.08887-1.39746a2.969,2.969,0,0,0-.47363-.02149c-.82519,0-1.14355.39551-1.14355.91309a.72908.72908,0,0,0,.72558.82519c.71485,0,.8916-.52832.8916-1.48535Z"/><path class="f4e6a752-b6f1-4c9b-aefc-166e375b9505" d="M257.69395,9.69385h.75977V8.25342h1.13281V9.69385h.91309v.94629h-.91309v3.30078c0,.35254.06641.5498.48438.5498a1.64877,1.64877,0,0,0,.34082-.02148v.84668a2.013,2.013,0,0,1-.748.11035c-.82519,0-1.21-.30859-1.21-1.28711v-3.499h-.75977Z"/><path class="f4e6a752-b6f1-4c9b-aefc-166e375b9505" d="M261.21446,9.69385H262.358v5.65527h-1.14356Zm.01074-.91309V7.52686h1.14454v1.2539Z"/><path class="f4e6a752-b6f1-4c9b-aefc-166e375b9505" d="M267.45177,12.46631c0,2.03613-.72657,2.99316-2.0791,2.99316-1.35352,0-2.05762-.9248-2.05762-2.9707,0-1.98047.82519-2.89355,2.1123-2.89355C266.74767,9.59522,267.45177,10.57471,267.45177,12.46631Zm-2.98145.02246c0,1.32031.26367,2.00195.92383,2.00195.63867,0,.90234-.68164.90234-1.99121,0-1.32031-.26367-1.93652-.90234-1.93652C264.7672,10.563,264.47032,11.16846,264.47032,12.48877Z"/><path class="f4e6a752-b6f1-4c9b-aefc-166e375b9505" d="M268.39708,11.45459c0-1.166,0-1.47461-.01074-1.76074H269.486a4.66931,4.66931,0,0,1,.0332.63867,1.32572,1.32572,0,0,1,1.28711-.7373c.87988,0,1.45215.53906,1.45215,1.71679v4.03711h-1.14453V11.56494c0-.60547-.15332-.99023-.71485-.99023-.59375,0-.8584.35156-.8584,1.32031v3.4541h-1.14355Z"/><path class="f4e6a752-b6f1-4c9b-aefc-166e375b9505" d="M279.1002,14.19385c0,.30859.03321.92383.044,1.15527H278.11a3.80938,3.80938,0,0,1-.05469-.56152,1.34315,1.34315,0,0,1-1.29883.66016,1.49378,1.49378,0,0,1-1.49609-1.66114c0-1.12207.77051-1.84765,2.22266-1.84765a3.49136,3.49136,0,0,1,.50586.02148v-.6709c0-.36328-.06641-.80273-.69336-.80273-.6377,0-.7041.42871-.73633.80273h-1.07813a1.61572,1.61572,0,0,1,1.8584-1.69433c1.167,0,1.76074.5498,1.76074,1.61718Zm-1.08886-1.39746a2.96922,2.96922,0,0,0-.47364-.02149c-.82519,0-1.14355.39551-1.14355.91309a.72909.72909,0,0,0,.72559.82519c.71484,0,.8916-.52832.8916-1.48535Z"/><path class="f4e6a752-b6f1-4c9b-aefc-166e375b9505" d="M280.33165,11.45459c0-1.166,0-1.47461-.01074-1.76074h1.09961a4.66931,4.66931,0,0,1,.0332.63867,1.32572,1.32572,0,0,1,1.28711-.7373c.87988,0,1.45215.53906,1.45215,1.71679v4.03711h-1.14453V11.56494c0-.60547-.15332-.99023-.71485-.99023-.59375,0-.8584.35156-.8584,1.32031v3.4541h-1.14355Z"/><path class="f4e6a752-b6f1-4c9b-aefc-166e375b9505" d="M289.2086,7.52686v6.293c0,.627,0,1.19921.01172,1.52929h-1.10058c-.01075-.14258-.03321-.46191-.03321-.66015a1.19315,1.19315,0,0,1-1.28711.75879c-1.17675,0-1.66113-1.04493-1.66113-2.98145,0-1.749.59375-2.87109,1.87012-2.87109.64941,0,.94629.25293,1.05664.49511V7.52686Zm-2.03515,6.94238c.748,0,.92382-.59473.92382-2.02441,0-1.41895-.14257-1.87012-.85742-1.87012-.583,0-.94629.47265-.94629,1.91406C286.29356,13.90772,286.5797,14.46924,287.17345,14.46924Z"/><path class="f4e6a752-b6f1-4c9b-aefc-166e375b9505" d="M204.74181,20.91358h-1.61719V19.89014h4.38965v1.02344H205.8961v6.43554h-1.15429Z"/><path class="f4e6a752-b6f1-4c9b-aefc-166e375b9505" d="M207.37071,23.60889c0-.91309,0-1.50781-.01074-1.915h1.08887a9.54617,9.54617,0,0,1,.0332.958,1.46047,1.46047,0,0,1,1.48535-1.0459v1.26562c-.93554,0-1.45312.38477-1.45312,1.44141v3.03613h-1.14356Z"/><path class="f4e6a752-b6f1-4c9b-aefc-166e375b9505" d="M214.12462,26.19385c0,.30859.0332.92383.04394,1.15527h-1.03418a3.8095,3.8095,0,0,1-.05468-.56152,1.34316,1.34316,0,0,1-1.29883.66016,1.49378,1.49378,0,0,1-1.4961-1.66114c0-1.12207.77051-1.84765,2.22266-1.84765a3.49129,3.49129,0,0,1,.50586.02148v-.6709c0-.36328-.06641-.80273-.69336-.80273-.63769,0-.7041.42871-.73633.80273h-1.07812a1.61572,1.61572,0,0,1,1.8584-1.69433c1.167,0,1.76074.5498,1.76074,1.61718Zm-1.08887-1.39746a2.96908,2.96908,0,0,0-.47363-.02149c-.8252,0-1.14356.39551-1.14356.91309a.72909.72909,0,0,0,.72559.82519c.71484,0,.8916-.52832.8916-1.48535Z"/><path class="f4e6a752-b6f1-4c9b-aefc-166e375b9505" d="M215.35606,23.45459c0-1.166,0-1.47461-.01074-1.76074h1.09961a4.66931,4.66931,0,0,1,.0332.63867,1.32574,1.32574,0,0,1,1.28711-.7373c.87989,0,1.45215.53906,1.45215,1.71679v4.03711h-1.14453V23.56494c0-.60547-.15332-.99023-.71484-.99023-.59375,0-.8584.35156-.8584,1.32031v3.4541h-1.14356Z"/><path class="f4e6a752-b6f1-4c9b-aefc-166e375b9505" d="M221.17442,25.66553a.81633.81633,0,0,0,.8252.90234.64937.64937,0,0,0,.72656-.7041c0-.46191-.21973-.69336-.91308-.957-1.27637-.47266-1.60645-.92383-1.60645-1.73828a1.55418,1.55418,0,0,1,1.76074-1.57324,1.59349,1.59349,0,0,1,1.77051,1.70507h-1.09961a.71607.71607,0,0,0-.7041-.82519.56657.56657,0,0,0-.61621.61621c0,.38574.19824.57227.91308.83594,1.166.44043,1.62793.88086,1.62793,1.80468,0,1.08887-.68164,1.71583-1.91406,1.71583a1.69588,1.69588,0,0,1-1.89258-1.78223Z"/><path class="f4e6a752-b6f1-4c9b-aefc-166e375b9505" d="M224.67247,29.40674V23.3335c0-.77051,0-1.28711-.01074-1.63965h1.10058a5.43741,5.43741,0,0,1,.03223.67187,1.285,1.285,0,0,1,1.29883-.7705c1.05566,0,1.65039.92382,1.65039,2.83886,0,2.14453-.72656,3.02539-1.81543,3.02539a1.14441,1.14441,0,0,1-1.11133-.59472v2.542Zm2.00293-6.832c-.72656,0-.90234.69238-.90234,1.88086,0,1.30957.08789,2.02441.87988,2.02441.62695,0,.93555-.7041.93555-1.99121C227.58849,23.11377,227.29161,22.57471,226.6754,22.57471Z"/><path class="f4e6a752-b6f1-4c9b-aefc-166e375b9505" d="M233.60509,24.46631c0,2.03613-.72559,2.99316-2.0791,2.99316s-2.05762-.9248-2.05762-2.9707c0-1.98047.82519-2.89355,2.1123-2.89355C232.901,21.59522,233.60509,22.57471,233.60509,24.46631Zm-2.98145.02246c0,1.32031.26465,2.002.92481,2.002.63769,0,.90136-.68164.90136-1.99121,0-1.32031-.26367-1.93652-.90136-1.93652C230.92149,22.563,230.62364,23.16846,230.62364,24.48877Z"/><path class="f4e6a752-b6f1-4c9b-aefc-166e375b9505" d="M234.5504,23.60889c0-.91309,0-1.50781-.01074-1.915h1.08886a9.21706,9.21706,0,0,1,.03321.958,1.46124,1.46124,0,0,1,1.48535-1.0459v1.26562c-.93555,0-1.45215.38477-1.45215,1.44141v3.03613H234.5504Z"/><path class="f4e6a752-b6f1-4c9b-aefc-166e375b9505" d="M237.59727,21.69385h.75879V20.25342h1.13379v1.44043h.91309v.94629h-.91309v3.30078c0,.35254.06543.5498.4834.5498a1.65865,1.65865,0,0,0,.3418-.02148v.84668a2.02078,2.02078,0,0,1-.749.11035c-.82421,0-1.21-.30859-1.21-1.28711v-3.499h-.75879Z"/><path class="f4e6a752-b6f1-4c9b-aefc-166e375b9505" d="M244.71446,26.19385c0,.30859.03321.92383.04395,1.15527h-1.03418a3.80938,3.80938,0,0,1-.05469-.56152,1.34315,1.34315,0,0,1-1.29883.66016,1.49378,1.49378,0,0,1-1.49609-1.66114c0-1.12207.77051-1.84765,2.22265-1.84765a3.49121,3.49121,0,0,1,.50586.02148v-.6709c0-.36328-.0664-.80273-.69336-.80273-.63769,0-.7041.42871-.73632.80273h-1.07813a1.61572,1.61572,0,0,1,1.8584-1.69433c1.167,0,1.76074.5498,1.76074,1.61718Zm-1.08886-1.39746a2.96922,2.96922,0,0,0-.47364-.02149c-.82519,0-1.14355.39551-1.14355.91309a.72908.72908,0,0,0,.72558.82519c.71485,0,.89161-.52832.89161-1.48535Z"/><path class="f4e6a752-b6f1-4c9b-aefc-166e375b9505" d="M245.30724,21.69385h.75976V20.25342h1.13281v1.44043h.91309v.94629h-.91309v3.30078c0,.35254.06641.5498.48438.5498a1.64877,1.64877,0,0,0,.34082-.02148v.84668a2.013,2.013,0,0,1-.74805.11035c-.82519,0-1.21-.30859-1.21-1.28711v-3.499h-.75976Z"/><path class="f4e6a752-b6f1-4c9b-aefc-166e375b9505" d="M248.82774,21.69385h1.14356v5.65527h-1.14356Zm.01075-.91309v-1.2539H249.983v1.2539Z"/><path class="f4e6a752-b6f1-4c9b-aefc-166e375b9505" d="M255.06505,24.46631c0,2.03613-.72656,2.99316-2.0791,2.99316-1.35352,0-2.05762-.9248-2.05762-2.9707,0-1.98047.82519-2.89355,2.1123-2.89355C254.361,21.59522,255.06505,22.57471,255.06505,24.46631Zm-2.98145.02246c0,1.32031.26367,2.002.92383,2.002.63867,0,.90234-.68164.90234-1.99121,0-1.32031-.26367-1.93652-.90234-1.93652C252.38048,22.563,252.0836,23.16846,252.0836,24.48877Z"/><path class="f4e6a752-b6f1-4c9b-aefc-166e375b9505" d="M256.01036,23.45459c0-1.166,0-1.47461-.01074-1.76074h1.09961a4.66931,4.66931,0,0,1,.0332.63867,1.32572,1.32572,0,0,1,1.28711-.7373c.87988,0,1.45215.53906,1.45215,1.71679v4.03711h-1.14453V23.56494c0-.60547-.15332-.99023-.71485-.99023-.59375,0-.85839.35156-.85839,1.32031v3.4541h-1.14356Z"/><path class="f4e6a752-b6f1-4c9b-aefc-166e375b9505" d="M264.19395,20.91358h-1.61718V19.89014h4.38965v1.02344h-1.61719v6.43554h-1.15528Z"/><path class="f4e6a752-b6f1-4c9b-aefc-166e375b9505" d="M267.61583,24.79639c0,.84765.12109,1.70605.90137,1.70605a.84154.84154,0,0,0,.84765-.83691h1.09961a1.885,1.885,0,0,1-1.96875,1.79394c-1.77148,0-2.02441-1.541-2.02441-2.96,0-1.793.66015-2.90429,2.05762-2.90429,1.59472,0,1.97949,1.23242,1.97949,2.68457,0,.165-.01074.40722-.02149.5166Zm1.75977-.83594c0-.69336-.11036-1.41894-.84668-1.41894-.84766,0-.89161,1.01171-.90235,1.41894Z"/><path class="f4e6a752-b6f1-4c9b-aefc-166e375b9505" d="M275.16173,25.50049a1.83637,1.83637,0,0,1-1.92578,1.94727c-1.57325,0-1.98047-1.29786-1.98047-2.96973,0-1.5293.50683-2.88281,2.04687-2.88281a1.76526,1.76526,0,0,1,1.85938,1.88183h-1.15528c-.01074-.2207-.05468-.93554-.71484-.93554-.64941,0-.88086.72558-.88086,1.94726,0,1.27637.23145,2.002.8584,2.002.68262,0,.748-.68164.78125-.99023Z"/><path class="f4e6a752-b6f1-4c9b-aefc-166e375b9505" d="M277.152,19.52686v2.76172a1.33046,1.33046,0,0,1,1.29785-.69336c.90235,0,1.41993.57226,1.41993,1.749v4.00488H278.7252V23.57568c0-.60546-.13183-1.001-.7373-1.001-.6377,0-.83594.50586-.83594,1.3418v3.43261h-1.13281V19.52686Z"/><path class="f4e6a752-b6f1-4c9b-aefc-166e375b9505" d="M281.068,23.45459c0-1.166,0-1.47461-.01074-1.76074h1.09961a4.66931,4.66931,0,0,1,.0332.63867,1.32572,1.32572,0,0,1,1.28711-.7373c.87988,0,1.45215.53906,1.45215,1.71679v4.03711h-1.14454V23.56494c0-.60547-.15332-.99023-.71484-.99023-.59375,0-.8584.35156-.8584,1.32031v3.4541H281.068Z"/><path class="f4e6a752-b6f1-4c9b-aefc-166e375b9505" d="M290.01134,24.46631c0,2.03613-.72657,2.99316-2.0791,2.99316-1.35352,0-2.05762-.9248-2.05762-2.9707,0-1.98047.82519-2.89355,2.1123-2.89355C289.30724,21.59522,290.01134,22.57471,290.01134,24.46631Zm-2.98145.02246c0,1.32031.26367,2.002.92383,2.002.63867,0,.90234-.68164.90234-1.99121,0-1.32031-.26367-1.93652-.90234-1.93652C287.32677,22.563,287.02989,23.16846,287.02989,24.48877Z"/><path class="f4e6a752-b6f1-4c9b-aefc-166e375b9505" d="M290.95665,27.34912V19.52686h1.14355v7.82226Z"/><path class="f4e6a752-b6f1-4c9b-aefc-166e375b9505" d="M297.18321,24.46631c0,2.03613-.72656,2.99316-2.0791,2.99316-1.35351,0-2.05762-.9248-2.05762-2.9707,0-1.98047.8252-2.89355,2.11231-2.89355C296.47911,21.59522,297.18321,22.57471,297.18321,24.46631Zm-2.98144.02246c0,1.32031.26367,2.002.92383,2.002.63867,0,.90234-.68164.90234-1.99121,0-1.32031-.26367-1.93652-.90234-1.93652C294.49864,22.563,294.20177,23.16846,294.20177,24.48877Z"/><path class="f4e6a752-b6f1-4c9b-aefc-166e375b9505" d="M302.0006,26.92041c0,1.57324-.42872,2.57422-2.11231,2.57422-1.55078,0-1.89258-.94629-1.9248-1.61719H299.107c.02246.21973.12109.68164.8252.68164.792,0,.94628-.59375.94628-1.63867v-.3418a1.22764,1.22764,0,0,1-1.24316.73731c-1.18848,0-1.7168-1.02246-1.7168-2.72852,0-1.96875.71582-2.99218,1.83789-2.99218.74805,0,1.02344.36328,1.12207.64941,0-.19824.03321-.418.04395-.55078h1.10059c-.01172.33008-.02246.90234-.02246,1.68359Zm-2.01368-.57226c.73731,0,.91309-.71485.91309-1.958,0-1.123-.09863-1.81543-.85742-1.81543-.61621,0-.957.63769-.957,1.98047C299.08556,25.78662,299.40392,26.34815,299.98692,26.34815Z"/><path class="f4e6a752-b6f1-4c9b-aefc-166e375b9505" d="M303.81505,21.69385c.48437,2.00293.90234,3.59766.96875,4.25781h.01074c.13184-.75879.54981-2.50781.97949-4.25781h1.15528l-1.63965,5.91894c-.47266,1.72754-1.03418,1.8711-1.82617,1.8711a2.22094,2.22094,0,0,1-.47364-.04492v-.96778a3.76809,3.76809,0,0,0,.39649.02246c.52832,0,.69336-.29785.86914-1.05664l-1.6836-5.74316Z"/><rect class="f54226d3-bd4e-442d-9281-c9e27eb5c9fd" x="191.32508" y="1.41748" width="0.71955" height="32.81072"/><path d="M71.24565,4.06371l-2.05554-.59839V1.98225H77.22c5.23,0,7.16009,1.67071,7.16009,5.62007,0,3.69471-2.10955,5.61-6.24326,5.61H74.88829v5.91645l2.08136.5984v1.379H69.138v-1.379l2.10761-.5984Zm3.64264-.066v7.3876l3.82618-.283c.94994-.43745,1.92921-1.01159,1.92921-3.396,0-1.8025-.08389-3.7086-3.58117-3.7086Z"/><path d="M114.21574,12.96225h-2.59687v6.16649l2.08135.5984v1.379h-7.8316v-1.379l2.10761-.5984V4.06371l-2.08157-.59839V1.98225h8.383c4.96961,0,6.78116,1.76313,6.78116,5.15175,0,2.6185-1.02184,3.98165-3.3825,4.91753l3.5385,6.92111,2.28626.7545v1.379h-5.33051Zm-2.59687-8.9505V11.297l3.87176-.26025c1.22895-.60922,1.82143-1.58358,1.82143-3.59057,0-2.1075-.68058-3.43446-2.8663-3.43446Z"/><path d="M125.06142,19.72714l2.08157-.57236V4.06371l-2.05553-.59839V1.98225h9.24305c5.22975,0,8.28211,3.153,8.28211,9.353,0,7.01568-3.16471,9.77094-8.68085,9.77094h-8.87035Zm5.75025-15.71539v15.117h2.73819c1.87958,0,5.12018-.30489,5.12018-7.20728,0-5.43793-.97668-7.90971-5.12018-7.90971Z"/><path d="M77.23022,31.06945c0,2.32461-1.34442,3.17927-3.547,3.17927-2.21239,0-3.547-1.30343-3.547-3.17927V26.4089l-.99811-.31264v-.87774h4.07629v.87774l-.98594.31264v4.66055c0,1.20244.46136,1.85658,1.77189,1.85658.64055,0,1.72713-.2,1.72713-1.91673V26.4089l-.99811-.31264v-.87774h3.499v.87774l-.9981.31264Z"/><path d="M84.25959,28.66952v4.27694l.98615.30069v.86926h-3.439v-.86926l1.01-.30069V26.87787l-.42859-.53937-.59638-.18609v-.93389h2.25142l4.3407,5.45895V26.4089l-.99789-.30058v-.8898h3.43883v.8898l-.99789.30058v7.71957H88.66046Z"/><path d="M98.24644,32.94646l.9979.30069v.86926h-4.088v-.86926l.99789-.30069V26.397l-.99789-.30069v-.87774h4.088v.87774l-.9979.30069Z"/><path d="M153.30156,32.94646l.99789.30069v.86926h-4.088v-.86926l.99789-.30069V26.397l-.99789-.30069v-.87774h4.088v.87774l-.99789.30069Z"/><path d="M108.59945,34.11641h-1.92386l-2.82572-7.70751-.99789-.31264v-.87774h4.30463v.87774l-1.01006.31264,1.87564,5.48307,1.91191-5.48307-.99789-.31264v-.87774h3.499v.87774l-.99811.31264Z"/><path d="M116.69436,26.4089l-.99789-.30058v-.8898h6.98587l.07213,2.74751h-1.11775l-.5412-1.56908H118.7866v2.501h2.30864v1.26251H118.7866v2.81366h2.3691l.70936-1.55945h1.09386l-.15622,2.70171h-7.10623v-.86926l.99789-.249Z"/><path d="M131.3065,30.48508h-.75759v2.46138l.99789.30069v.86926h-4.088v-.86926l.99789-.30069V26.4089l-.99789-.30058v-.8898H131.523c2.489,0,3.2584.96193,3.2584,2.465a2.1324,2.1324,0,0,1-1.43954,2.32831l1.42758,2.90218,1.25036.38477v.81767h-3.00605Zm-.75759-4.07618v3.11425l1.40678-.12015a1.86629,1.86629,0,0,0,.69741-1.55115c0-.88979-.23432-1.44295-1.14813-1.44295Z"/><path d="M139.64149,31.35087h1.23632l.26463,1.25046a3.59918,3.59918,0,0,0,1.87792.51709,2.30927,2.30927,0,0,0,.28853-.01206,1.3391,1.3391,0,0,0,.55315-1.07013c0-2.08018-4.25661-1.15432-4.25661-4.19643,0-1.39483,1.27468-2.72948,3.39082-2.72948a5.53537,5.53537,0,0,1,2.41683.61323v2.3447h-1.16714l-.42084-1.491a4.0564,4.0564,0,0,0-1.442-.28863,1.6057,1.6057,0,0,0-.24051.01206,1.23,1.23,0,0,0-.58921,1.04612c0,1.7796,4.22054,1.14226,4.22054,4.1243,0,1.61122-1.455,2.76554-3.41493,2.76554a5.03775,5.03775,0,0,1-2.70536-.80561Z"/><path d="M161.36008,26.421h-1.15431l-.53037,1.58709h-1.11692V25.21852h7.75563v2.78953h-1.09932l-.5119-1.58709h-1.25057v6.5255l.99811.30069v.86926h-4.08824v-.86926l.99789-.30069Z"/><path d="M173.29077,30.68953,170.958,26.4089l-.99789-.31264v-.87774h4.30463v.87774l-1.01006.31264,1.467,2.89786,1.47891-2.89786-.99789-.31264v-.87774h3.511v.87774l-.9981.31264-2.34471,4.25662v2.28094l.99811.30069v.86926h-4.08824v-.86926l1.01006-.30069Z"/><polygon points="177.053 15.564 175.7 19.129 169.712 19.129 169.712 12.249 173.104 12.249 173.541 14.175 175.049 14.175 175.049 8.381 173.541 8.381 173.104 10.239 169.712 10.239 169.712 4.012 175.44 4.012 176.533 7.706 178.595 7.706 178.465 1.982 163.987 1.982 163.987 3.465 166.043 4.064 166.043 19.155 163.961 19.727 163.961 21.106 178.751 21.106 179.089 15.564 177.053 15.564"/><path d="M102.17305,14.52947c0,4.8519-2.31628,6.86288-7.06422,6.86288-4.37121,0-7.53238-1.74607-7.53238-6.35594V4.06371l-2.08157-.59839V1.98225h7.80578V3.46532l-2.08157.59839v10.9727c0,2.758,1.2749,3.96936,4.31914,3.96936,2.10052,0,4.033-1.23093,4.033-4.22294V4.06371l-2.05554-.59839V1.98225h6.739V3.46532l-2.08157.59839Z"/><path d="M160.26587,14.52947c0,4.8519-2.31629,6.86288-7.06422,6.86288-4.37121,0-7.53238-1.74607-7.53238-6.35594V4.06371l-2.08157-.59839V1.98225h7.80578V3.46532l-2.08157.59839v10.9727c0,2.758,1.27489,3.96936,4.31914,3.96936,2.10052,0,4.033-1.23093,4.033-4.22294V4.06371l-2.05553-.59839V1.98225h6.739V3.46532l-2.08157.59839Z"/><path d="M32.33437,34.1343l4.11762-9.673H43.2735c9.8728,0,13.6198-4.05353,16.21131-10.14036.95858-2.25337,2.56457-6.02548.444-9.23373-2.1085-3.19061-6.58651-3.55934-9.77248-3.55934H13.8966L8.78232,13.53792h6.56237l-3.65134,8.58074H5.11613L0,34.1343Z"/><path class="f54226d3-bd4e-442d-9281-c9e27eb5c9fd" d="M58.07016,6.31508c-1.15271-1.74625-3.669-2.55991-7.91292-2.55991H15.37069l-3.21755,7.55529H18.7155l-5.55084,13.0356H6.5893l-3.21849,7.5618H30.86214l3.22033-7.5618H27.41329l.89914-2.11129h14.962c9.62294,0,12.18936-4.1557,14.1604-8.78512,1.06075-2.49307,1.98217-5.09663.63533-7.13457m-25.107,4.99538H43.95156c1.51409,0,1.29761.75985,1.09883,1.23074A3.6952,3.6952,0,0,1,41.531,14.67756H31.53Z"/><path class="b213de10-c6ea-4b98-8129-3efef4dd7e3b" d="M50.15724,4.91534H16.13514L13.905,10.15409h6.56422L13.93189,25.50435H7.3556l-2.233,5.24432H30.09676l2.232-5.24432H25.66148L27.548,21.0746H43.27443c9.01453,0,11.28094-3.81848,13.095-8.07918,1.815-4.2625,2.80235-8.08008-6.21219-8.08008M41.531,15.83585H29.77816l2.41967-5.68176H43.95156c2.0797,0,2.91846,1.06912,2.1633,2.84133A4.80854,4.80854,0,0,1,41.531,15.83585"/><path class="f54226d3-bd4e-442d-9281-c9e27eb5c9fd" d="M181.13806,34.09247a1.90816,1.90816,0,1,1,1.90819-1.90812A1.91031,1.91031,0,0,1,181.13806,34.09247Zm0-3.42049a1.51234,1.51234,0,1,0,1.51238,1.51237A1.51409,1.51409,0,0,0,181.13806,30.672Z"/><path class="f54226d3-bd4e-442d-9281-c9e27eb5c9fd" d="M180.89623,32.35877v.70913h-.37511V31.29767h.77853c.38535,0,.59351.21067.59351.48557a.42529.42529,0,0,1-.257.41883c.08738.0334.221.12329.221.44191v.08731a1.33907,1.33907,0,0,0,.02566.33661h-.36478a1.26441,1.26441,0,0,1-.036-.39825V32.644c0-.19268-.04881-.28521-.334-.28521Zm0-.30572h.3212c.20809,0,.29031-.07964.29031-.22615,0-.14387-.09505-.22609-.28264-.22609h-.32887Z"/></svg>