<svg width="981" height="281" viewBox="0 0 981 281" fill="none" xmlns="http://www.w3.org/2000/svg">
<path d="M329.347 67.7314H380.001V216.689H417.932V67.7314H468.633V32.1469H329.347V67.7314Z" fill="#020617"/>
<path d="M519.38 80.4996H482.481V216.688H519.38V80.4996Z" fill="#020617"/>
<path d="M703.404 77.3564C684.861 77.3564 669.792 83.7879 658.196 96.604C649.887 83.7879 636.695 77.3564 618.668 77.3564C599.609 77.3564 586.511 83.9287 579.422 97.1204V80.5017H545.387V216.69H582.286V138.479C582.286 129.278 584.586 122.095 589.187 116.931C593.788 111.72 600.313 109.138 608.81 109.138C623.363 109.138 630.639 118.058 630.639 135.897V216.737H667.538V139.277C667.538 129.747 669.792 122.33 674.298 117.072C678.805 111.767 685.377 109.138 694.062 109.138C708.615 109.138 715.892 118.058 715.892 135.897V216.737H752.79V131.766C752.79 115.288 748.518 102.143 740.068 92.2381C731.571 82.3796 719.366 77.4034 703.404 77.4034V77.3564Z" fill="#020617"/>
<path d="M814.852 21.7724H777.953V216.689H814.852V21.7724Z" fill="#020617"/>
<path d="M931.839 80.4997L896.677 170.635L866.069 80.4997H826.823L879.824 213.918L857.76 270.44L894.142 270.769L970.287 80.4997H931.839Z" fill="#020617"/>
<path d="M519.38 32.146H482.481V67.7305H519.38V32.146Z" fill="#020617"/>
<path d="M257.449 140.645C263.19 130.675 263.19 118.401 257.449 108.431L209.935 26.1244C207.047 21.1393 202.956 17.1168 198.143 14.332C196.699 13.5068 195.151 12.7848 193.57 12.166C192.47 11.7534 191.37 11.3752 190.235 11.0658C187.588 10.3782 184.837 10 182.018 10H117.039L131.72 35.4072L134.504 40.2548L224.925 196.857L257.414 140.577L257.449 140.645Z" fill="#2169FF"/>
<path d="M77.534 138.995L118.55 67.9303C128.555 50.637 122.607 28.496 105.313 18.4913C88.02 8.48662 65.8791 14.4345 55.8744 31.7278L14.8585 102.792C4.85385 120.085 10.8017 142.226 28.095 152.231C45.3884 162.236 67.5293 156.288 77.534 138.995Z" fill="#2169FF"/>
<path d="M211.583 202.84C211.583 182.865 195.389 166.637 175.38 166.637H26.6161L59.1055 222.918C64.847 232.888 75.505 239.008 86.988 239.008H175.38C195.355 239.008 211.583 222.815 211.583 202.805V202.84Z" fill="#2169FF"/>
</svg>
