<svg width="100%" viewBox="0 0 680 326" role="img" xmlns="http://www.w3.org/2000/svg" font-family="Inter, system-ui, -apple-system, Segoe UI, Roboto, sans-serif">
<title>Two tracking methods in one asset list (illustrative)</title>
<desc>Illustrative mockup of an asset list showing individually-tracked items (a Sony camera and a MacBook, each with a unique QR ID and an Individual tag) alongside a quantity-tracked row (USB-C cables tagged Quantity, showing 500 pcs and a low-stock threshold of 50). Representative of the Shelf interface, not a screenshot.</desc>
<defs>
  <filter id="cs2" x="-20%" y="-20%" width="140%" height="160%"><feDropShadow dx="0" dy="3" stdDeviation="8" flood-color="#1e293b" flood-opacity="0.10"/></filter>
</defs>
<rect x="0" y="0" width="680" height="326" rx="20" fill="#eef1f5"/>
<rect x="36" y="22" width="608" height="266" rx="16" fill="#ffffff" stroke="#e9eef4" filter="url(#cs2)"/>
<text x="60" y="60" font-size="17" font-weight="700" fill="#0f172a">Assets</text>
<text x="620" y="60" text-anchor="end" font-size="11.5" fill="#64748b">3 records</text>
<text x="60" y="90" font-size="10" font-weight="700" letter-spacing="0.6" fill="#9ca7b5">ITEM</text>
<text x="400" y="90" font-size="10" font-weight="700" letter-spacing="0.6" fill="#9ca7b5">TRACKING</text>
<text x="620" y="90" text-anchor="end" font-size="10" font-weight="700" letter-spacing="0.6" fill="#9ca7b5">ID / QTY</text>
<line x1="60" y1="100" x2="620" y2="100" stroke="#eef2f7"/>
<rect x="60" y="114" width="36" height="36" rx="9" fill="#f1f5f9"/>
<rect x="70" y="125" width="16" height="13" rx="2.5" fill="none" stroke="#94a3b8" stroke-width="1.5"/><circle cx="78" cy="131.5" r="3.5" fill="none" stroke="#94a3b8" stroke-width="1.5"/>
<text x="108" y="128" font-size="13.5" font-weight="600" fill="#0f172a">Sony A7 IV</text>
<text x="108" y="145" font-size="11" fill="#94a3b8">Camera</text>
<rect x="400" y="121" width="86" height="22" rx="11" fill="#f1f5f9" stroke="#e6ebf1"/><text x="443" y="136" text-anchor="middle" font-size="11" fill="#475569">Individual</text>
<text x="592" y="136" text-anchor="end" font-family="ui-monospace, monospace" font-size="11" fill="#64748b">#A-01</text>
<rect x="600" y="122" width="20" height="20" rx="3" fill="#0f172a"/><rect x="603" y="125" width="6" height="6" fill="#fff"/><rect x="611" y="125" width="6" height="6" fill="#fff"/><rect x="603" y="133" width="6" height="6" fill="#fff"/>
<line x1="60" y1="164" x2="620" y2="164" stroke="#f1f5f9"/>
<rect x="60" y="176" width="36" height="36" rx="9" fill="#f1f5f9"/>
<rect x="69" y="186" width="18" height="13" rx="2" fill="none" stroke="#94a3b8" stroke-width="1.5"/><line x1="66" y1="203" x2="90" y2="203" stroke="#94a3b8" stroke-width="1.5" stroke-linecap="round"/>
<text x="108" y="190" font-size="13.5" font-weight="600" fill="#0f172a">MacBook Pro 14”</text>
<text x="108" y="207" font-size="11" fill="#94a3b8">Laptop</text>
<rect x="400" y="183" width="86" height="22" rx="11" fill="#f1f5f9" stroke="#e6ebf1"/><text x="443" y="198" text-anchor="middle" font-size="11" fill="#475569">Individual</text>
<text x="592" y="198" text-anchor="end" font-family="ui-monospace, monospace" font-size="11" fill="#64748b">#A-02</text>
<rect x="600" y="184" width="20" height="20" rx="3" fill="#0f172a"/><rect x="603" y="187" width="6" height="6" fill="#fff"/><rect x="611" y="187" width="6" height="6" fill="#fff"/><rect x="603" y="195" width="6" height="6" fill="#fff"/>
<rect x="50" y="224" width="580" height="52" rx="11" fill="#fff7ed"/>
<rect x="60" y="236" width="36" height="36" rx="9" fill="#ffedd5"/>
<rect x="70" y="247" width="16" height="14" rx="2.5" fill="none" stroke="#ea580c" stroke-width="1.6"/><line x1="70" y1="252" x2="86" y2="252" stroke="#ea580c" stroke-width="1.6"/>
<text x="108" y="250" font-size="13.5" font-weight="600" fill="#0f172a">USB-C cables</text>
<text x="108" y="267" font-size="11" fill="#b45309">Cable · counted in pcs</text>
<rect x="400" y="243" width="86" height="22" rx="11" fill="#ffedd5"/><text x="443" y="258" text-anchor="middle" font-size="11" font-weight="600" fill="#9a3412">Quantity</text>
<text x="600" y="250" text-anchor="end" font-size="13.5" font-weight="800" fill="#ea580c">500 pcs</text>
<text x="600" y="267" text-anchor="end" font-size="10.5" fill="#b45309">low-stock at 50</text>
<text x="620" y="312" text-anchor="end" font-size="10.5" fill="#aab3bf">Illustrative — representative of the Shelf interface, not a screenshot</text>
</svg>
